<svg xmlns="http://www.w3.org/2000/svg" xmlns:xlink="http://www.w3.org/1999/xlink" xmlns:inkscape="http://www.inkscape.org/namespaces/inkscape" version="1.1" width="594.96" height="274.31999" viewBox="0 0 594.96 274.31999">
<rect id="svg-background" width="100%" height="100%" fill="#ffffff"/>

<defs>
<clipPath id="clip_1">
<path transform="matrix(2.028409,0,0,-2.029614,8.270993,-6.779236)" d="M0-.552H1.316V.552H0Z"/>
</clipPath>
<clipPath id="clip_2">
<path transform="matrix(11.666667,0,0,-11.673599,58.916669,101.07495)" d="M-.008 0H1.6V2.004H-.008Z"/>
</clipPath>
<clipPath id="clip_3">
<path transform="matrix(11.666667,0,0,-11.673599,58.916669,124.42212)" d="M-.008 0H1.6V2.004H-.008Z"/>
</clipPath>
<clipPath id="clip_4">
<path transform="matrix(11.666667,0,0,-11.673599,104.84127,118.46857)" d="M0-.552H1.316V.552H0Z"/>
</clipPath>
<clipPath id="clip_5">
<path transform="matrix(11.666667,0,0,-11.673599,104.84127,77.61096)" d="M0-.552H1.316V.552H0Z"/>
</clipPath>
<clipPath id="clip_6">
<path transform="matrix(11.666667,0,0,-11.673599,143.65474,95.1214)" d="M0-.552H1.316V.552H0Z"/>
</clipPath>
<clipPath id="clip_7">
<path transform="matrix(11.666667,0,0,-11.673599,160.08283,95.1214)" d="M.062-.538H.312V.538H.062Z"/>
</clipPath>
<clipPath id="clip_8">
<path transform="matrix(11.666667,0,0,-11.673599,143.27092,95.1214)" d="M-.312-.538H-.062V.538H-.312Z"/>
</clipPath>
<clipPath id="clip_9">
<path transform="matrix(11.666667,0,0,-11.673599,182.46822,77.61096)" d="M0-.552H1.316V.552H0Z"/>
</clipPath>
<clipPath id="clip_10">
<path transform="matrix(11.666667,0,0,-11.673599,153.38008,19.242981)" d="M.073297-.02216H.891501V1.254578H.073297Z"/>
</clipPath>
<clipPath id="clip_11">
<path transform="matrix(11.666667,0,0,-11.673599,222.9663,77.61096)" d="M0-.552H1.316V.552H0Z"/>
</clipPath>
<clipPath id="clip_12">
<path transform="matrix(11.666667,0,0,-11.673599,261.77973,95.1214)" d="M0-.552H1.316V.552H0Z"/>
</clipPath>
<clipPath id="clip_13">
<path transform="matrix(11.666667,0,0,-11.673599,278.2078,95.1214)" d="M.062-.538H.312V.538H.062Z"/>
</clipPath>
<clipPath id="clip_14">
<path transform="matrix(11.666667,0,0,-11.673599,261.3959,95.1214)" d="M-.312-.538H-.062V.538H-.312Z"/>
</clipPath>
<clipPath id="clip_15">
<path transform="matrix(11.666667,0,0,-11.673599,300.5932,118.46857)" d="M0-.552H1.316V.552H0Z"/>
</clipPath>
<clipPath id="clip_16">
<path transform="matrix(11.666667,0,0,-11.673599,300.5932,77.61096)" d="M0-.552H1.316V.552H0Z"/>
</clipPath>
<clipPath id="clip_17">
<path transform="matrix(11.666667,0,0,-11.673599,271.5051,19.242981)" d="M.073297-.02216H.891501V1.254578H.073297Z"/>
</clipPath>
<clipPath id="clip_18">
<path transform="matrix(11.666667,0,0,-11.673599,341.0913,95.1214)" d="M0-.552H1.316V.552H0Z"/>
</clipPath>
<clipPath id="clip_19">
<path transform="matrix(11.666667,0,0,-11.673599,341.0913,77.61096)" d="M0-.552H1.316V.552H0Z"/>
</clipPath>
<clipPath id="clip_20">
<path transform="matrix(11.666667,0,0,-11.673599,379.90473,95.1214)" d="M0-.552H1.316V.552H0Z"/>
</clipPath>
<clipPath id="clip_21">
<path transform="matrix(11.666667,0,0,-11.673599,396.33277,95.1214)" d="M.062-.538H.312V.538H.062Z"/>
</clipPath>
<clipPath id="clip_22">
<path transform="matrix(11.666667,0,0,-11.673599,379.5209,95.1214)" d="M-.312-.538H-.062V.538H-.312Z"/>
</clipPath>
<clipPath id="clip_23">
<path transform="matrix(11.666667,0,0,-11.673599,418.7182,77.61096)" d="M0-.552H1.316V.552H0Z"/>
</clipPath>
<clipPath id="clip_24">
<path transform="matrix(11.666667,0,0,-11.673599,389.63014,19.242981)" d="M.073297-.02216H.891501V1.254578H.073297Z"/>
</clipPath>
<clipPath id="clip_25">
<path transform="matrix(11.666667,0,0,-11.673599,459.21626,118.46857)" d="M0-.552H1.316V.552H0Z"/>
</clipPath>
<clipPath id="clip_26">
<path transform="matrix(11.666667,0,0,-11.673599,459.21626,77.61096)" d="M0-.552H1.316V.552H0Z"/>
</clipPath>
<clipPath id="clip_27">
<path transform="matrix(11.666667,0,0,-11.673599,498.02973,95.1214)" d="M0-.552H1.316V.552H0Z"/>
</clipPath>
<clipPath id="clip_28">
<path transform="matrix(11.666667,0,0,-11.673599,514.45779,95.1214)" d="M.062-.538H.312V.538H.062Z"/>
</clipPath>
<clipPath id="clip_29">
<path transform="matrix(11.666667,0,0,-11.673599,497.64595,95.1214)" d="M-.312-.538H-.062V.538H-.312Z"/>
</clipPath>
<clipPath id="clip_30">
<path transform="matrix(11.666667,0,0,-11.673599,536.8432,77.61096)" d="M0-.552H1.316V.552H0Z"/>
</clipPath>
<clipPath id="clip_31">
<path transform="matrix(11.666667,0,0,-11.673599,507.7551,19.242981)" d="M.073297-.02216H.891501V1.254578H.073297Z"/>
</clipPath>
<clipPath id="clip_32">
<path transform="matrix(11.666667,0,0,-11.673599,26.932503,222.36365)" d="M0-.552H1.316V.552H0Z"/>
</clipPath>
<clipPath id="clip_33">
<path transform="matrix(11.666667,0,0,-11.673599,71.68779,239.87403)" d="M0-.552H1.316V.552H0Z"/>
</clipPath>
<clipPath id="clip_34">
<path transform="matrix(11.666667,0,0,-11.673599,88.11586,239.87403)" d="M.062-.538H.312V.538H.062Z"/>
</clipPath>
<clipPath id="clip_35">
<path transform="matrix(11.666667,0,0,-11.673599,71.303958,239.87403)" d="M-.312-.538H-.062V.538H-.312Z"/>
</clipPath>
<clipPath id="clip_36">
<path transform="matrix(11.666667,0,0,-11.673599,116.44306,263.2212)" d="M0-.552H1.316V.552H0Z"/>
</clipPath>
<clipPath id="clip_37">
<path transform="matrix(11.666667,0,0,-11.673599,116.44306,222.36365)" d="M0-.552H1.316V.552H0Z"/>
</clipPath>
<clipPath id="clip_38">
<path transform="matrix(11.666667,0,0,-11.673599,81.41313,163.9956)" d="M.073297-.02216H.891501V1.254578H.073297Z"/>
</clipPath>
<clipPath id="clip_39">
<path transform="matrix(11.666667,0,0,-11.673599,163.14086,222.36365)" d="M0-.552H1.316V.552H0Z"/>
</clipPath>
<clipPath id="clip_40">
<path transform="matrix(11.666667,0,0,-11.673599,207.89614,239.87403)" d="M0-.552H1.316V.552H0Z"/>
</clipPath>
<clipPath id="clip_41">
<path transform="matrix(11.666667,0,0,-11.673599,224.3242,239.87403)" d="M.062-.538H.312V.538H.062Z"/>
</clipPath>
<clipPath id="clip_42">
<path transform="matrix(11.666667,0,0,-11.673599,207.5123,239.87403)" d="M-.312-.538H-.062V.538H-.312Z"/>
</clipPath>
<clipPath id="clip_43">
<path transform="matrix(11.666667,0,0,-11.673599,252.6514,222.36365)" d="M0-.552H1.316V.552H0Z"/>
</clipPath>
<clipPath id="clip_44">
<path transform="matrix(11.666667,0,0,-11.673599,217.62149,163.9956)" d="M.073297-.02216H.891501V1.254578H.073297Z"/>
</clipPath>
<clipPath id="clip_45">
<path transform="matrix(11.666667,0,0,-11.673599,299.34919,263.2212)" d="M0-.552H1.316V.552H0Z"/>
</clipPath>
<clipPath id="clip_46">
<path transform="matrix(11.666667,0,0,-11.673599,299.34919,239.87403)" d="M0-.552H1.316V.552H0Z"/>
</clipPath>
<clipPath id="clip_47">
<path transform="matrix(11.666667,0,0,-11.673599,299.34919,222.36365)" d="M0-.552H1.316V.552H0Z"/>
</clipPath>
<clipPath id="clip_48">
<path transform="matrix(11.666667,0,0,-11.673599,344.10447,239.87403)" d="M0-.552H1.316V.552H0Z"/>
</clipPath>
<clipPath id="clip_49">
<path transform="matrix(11.666667,0,0,-11.673599,360.53254,239.87403)" d="M.062-.538H.312V.538H.062Z"/>
</clipPath>
<clipPath id="clip_50">
<path transform="matrix(11.666667,0,0,-11.673599,343.7206,239.87403)" d="M-.312-.538H-.062V.538H-.312Z"/>
</clipPath>
<clipPath id="clip_51">
<path transform="matrix(11.666667,0,0,-11.673599,388.8597,222.36365)" d="M0-.552H1.316V.552H0Z"/>
</clipPath>
<clipPath id="clip_52">
<path transform="matrix(11.666667,0,0,-11.673599,353.82984,163.9956)" d="M.073297-.02216H.891501V1.254578H.073297Z"/>
</clipPath>
<clipPath id="clip_53">
<path transform="matrix(11.666667,0,0,-11.673599,435.55757,222.36365)" d="M0-.552H1.316V.552H0Z"/>
</clipPath>
<clipPath id="clip_54">
<path transform="matrix(11.666667,0,0,-11.673599,480.3128,239.87403)" d="M0-.552H1.316V.552H0Z"/>
</clipPath>
<clipPath id="clip_55">
<path transform="matrix(11.666667,0,0,-11.673599,496.74089,239.87403)" d="M.062-.538H.312V.538H.062Z"/>
</clipPath>
<clipPath id="clip_56">
<path transform="matrix(11.666667,0,0,-11.673599,479.92903,239.87403)" d="M-.312-.538H-.062V.538H-.312Z"/>
</clipPath>
<clipPath id="clip_57">
<path transform="matrix(11.666667,0,0,-11.673599,525.0681,263.2212)" d="M0-.552H1.316V.552H0Z"/>
</clipPath>
<clipPath id="clip_58">
<path transform="matrix(11.666667,0,0,-11.673599,525.0681,222.36365)" d="M0-.552H1.316V.552H0Z"/>
</clipPath>
<clipPath id="clip_59">
<path transform="matrix(11.666667,0,0,-11.673599,490.0382,163.9956)" d="M.073297-.02216H.891501V1.254578H.073297Z"/>
</clipPath>
<path id="font_60_28" d="M.045410158 .16592407 .17822266 .18066406C.18147786 .15348308 .1899414 .13334148 .20361328 .12023926 .21728516 .10713705 .23535156 .10058594 .2578125 .10058594 .2861328 .10058594 .31022135 .11365255 .33007813 .13978577 .3499349 .16591899 .36263023 .22007244 .36816407 .3022461 .33365885 .26220704 .29052735 .2421875 .23876953 .2421875 .18245442 .2421875 .13387044 .2638906 .09301758 .30729676 .052164716 .3507131 .03173828 .4072164 .03173828 .47680665 .03173828 .5493266 .053304037 .6077779 .09643555 .65216067 .13956706 .6965535 .1944987 .71875 .26123048 .71875 .33382163 .71875 .39339195 .6906331 .4399414 .6343994 .48649089 .57817587 .5097656 .48568727 .5097656 .3569336 .5097656 .22590129 .4855143 .13137309 .43701173 .073349 .38850913 .015335083 .32535807-.013671875 .2475586-.013671875 .19156902-.013671875 .14632161 .001332601 .111816409 .031341554 .077311199 .061360677 .05517578 .10622152 .045410158 .16592407M.35595704 .46536256C.35595704 .50947067 .34578453 .5436859 .32543946 .5680084 .3050944 .59233096 .28157554 .6044922 .2548828 .6044922 .22949219 .6044922 .20841472 .594518 .19165039 .5745697 .17488607 .55463156 .1665039 .5219574 .1665039 .47654725 .1665039 .43049623 .17561849 .39668785 .19384766 .37512208 .21207683 .3535563 .23486328 .34277345 .26220704 .34277345 .28857423 .34277345 .31079103 .3531494 .32885743 .37390138 .34692384 .39466349 .35595704 .42515055 .35595704 .46536256Z"/>
<path id="font_60_21" d="M.5058594 .12792969V0H.024902344C.030110678 .048136396 .045735677 .09375 .071777347 .13684082 .09781901 .17994182 .1492513 .2371114 .22607422 .3083496 .2879232 .36591593 .32584635 .40494285 .33984376 .4254303 .35872398 .45373027 .36816407 .4817047 .36816407 .50935366 .36816407 .53993228 .35994468 .5634308 .34350587 .57984927 .32706706 .5962779 .30436198 .6044922 .27539063 .6044922 .2467448 .6044922 .22395833 .5958252 .20703125 .5784912 .19010417 .5611674 .18033855 .5323995 .17773438 .4921875L.041015626 .5059204C.049153646 .5817668 .07470703 .63619998 .11767578 .66922 .16064453 .70224 .21435547 .71875 .2788086 .71875 .34944663 .71875 .4049479 .6997223 .4453125 .66166689 .4856771 .62361147 .5058594 .5762889 .5058594 .5196991 .5058594 .4874929 .50008139 .4568329 .4885254 .42771913 .4769694 .3986155 .45865885 .36812846 .43359376 .33625794 .4169922 .31510926 .38704429 .2846934 .34375 .24501038 .30045573 .20533753 .2730306 .17899578 .2614746 .1659851 .24991863 .15297444 .24055989 .1402893 .23339844 .12792969H.5058594Z"/>
<path id="font_60_32" d="M.041503908 .39746095V.52441409H.5419922V.39746095H.041503908M.041503908 .1796875V.30664063H.5419922V.1796875H.041503908Z"/>
<path id="font_60_3" d=""/>
<path id="font_60_48" d="M.07080078 0V.7158203H.28710938L.4169922 .22753906 .54541018 .7158203H.76220706V0H.6279297V.56347659L.48583985 0H.3466797L.20507813 .56347659V0H.07080078Z"/>
<path id="font_60_68" d="M.1743164 .35839845 .049804689 .38085938C.063802089 .4316508 .087890628 .46924845 .12207031 .49365235 .15625 .5180664 .20703125 .53027346 .27441407 .53027346 .33561198 .53027346 .3811849 .5230306 .4111328 .5085449 .44108073 .49405924 .4621582 .47566734 .47436524 .45336915 .48657228 .43107096 .49267579 .39013673 .49267579 .3305664L.49121095 .17041016C.49121095 .12483724 .4934082 .09122721 .49780274 .06958008 .50219729 .04793294 .5104167 .024739584 .52246096 0H.38671876C.38313804 .009114583 .3787435 .022623698 .37353517 .040527345 .3712565 .048665365 .3696289 .054036458 .36865235 .056640626 .34521485 .033854169 .32014976 .016764323 .29345704 .0053710939 .2667643-.0060221354 .23828125-.01171875 .20800781-.01171875 .15462239-.01171875 .11254883 .0027058919 .08178711 .031555177 .05102539 .06040446 .03564453 .09687296 .03564453 .1409607 .03564453 .1701355 .04264323 .19614665 .056640626 .21899414 .07063802 .2418518 .09025065 .25935874 .115478519 .2715149 .14070638 .28367106 .17708333 .2942861 .22460938 .30336 .28873698 .3153534 .33317057 .3265381 .35791017 .33691407V.35073854C.35791017 .37740074 .35139976 .39640809 .3383789 .40776063 .32535807 .41912333 .30078126 .4248047 .26464845 .4248047 .24023438 .4248047 .2211914 .41989137 .20751953 .4100647 .19384766 .4002482 .18277996 .38302613 .1743164 .35839845M.35791017 .24707031C.34033204 .24128215 .3125 .23436482 .27441407 .22631836 .23632813 .21828206 .21142578 .21040344 .19970703 .2026825 .18180339 .19013977 .17285156 .17421977 .17285156 .15492249 .17285156 .13594055 .18001302 .119532268 .19433594 .10569763 .20865886 .09187317 .22688802 .08496094 .24902344 .08496094 .27376304 .08496094 .29736329 .09300232 .31982423 .10908508 .33642579 .121302288 .34733073 .13626099 .35253907 .15396118 .35611979 .16553752 .35791017 .18756612 .35791017 .220047V.24707031Z"/>
<path id="font_60_71" d="M.5473633 0H.41992188V.076171878C.39876304 .04654948 .3737793 .024495444 .3449707 .010009766 .3161621-.0044759118 .28710938-.01171875 .2578125-.01171875 .19824219-.01171875 .1472168 .012288411 .10473633 .060302736 .06225586 .108317058 .041015626 .17529297 .041015626 .26123048 .041015626 .3491211 .0616862 .41593424 .103027347 .46166993 .14436849 .5074056 .19661458 .53027346 .25976563 .53027346 .31770835 .53027346 .36783854 .5061849 .41015626 .4580078V.7158203H.5473633V0M.18115235 .2702484C.18115235 .21499126 .18880208 .17501323 .20410156 .15031433 .22623699 .1145579 .25716148 .09667969 .296875 .09667969 .32845054 .09667969 .355306 .110087078 .3774414 .13690186 .3995768 .16371663 .41064454 .20377605 .41064454 .25708009 .41064454 .316569 .39990235 .35939536 .37841798 .38555909 .3569336 .4117228 .3294271 .4248047 .29589845 .4248047 .26334635 .4248047 .23608399 .4118856 .21411133 .38604737 .19213867 .36020915 .18115235 .3216095 .18115235 .2702484Z"/>
<path id="font_60_72" d="M.3720703 .16503906 .50878909 .14160156C.49121095 .09163412 .4634603 .053588869 .4255371 .02746582 .38761393 .0013427734 .34016929-.01171875 .28320313-.01171875 .19303386-.01171875 .12630208 .017740885 .08300781 .076660159 .048828126 .12386068 .03173828 .18343099 .03173828 .2553711 .03173828 .3413086 .05419922 .40861003 .099121097 .4572754 .14404297 .50594076 .20084636 .53027346 .26953126 .53027346 .3466797 .53027346 .4075521 .50480148 .45214845 .45385743 .49674479 .40291343 .5180664 .32486979 .5161133 .21972656H.17236328C.17333985 .17903646 .18440755 .14737956 .2055664 .12475586 .22672527 .102132167 .25309245 .09082031 .28466798 .09082031 .30615235 .09082031 .32421876 .09667969 .3388672 .10839844 .35351563 .12011719 .36458335 .13899739 .3720703 .16503906M.3798828 .30371095C.37890626 .34326173 .36865235 .3733317 .3491211 .3939209 .32958985 .4145101 .3058268 .4248047 .27783204 .4248047 .24788411 .4248047 .22314453 .41394554 .20361328 .39222718 .18408203 .37049867 .17447917 .34099327 .17480469 .30371095H.3798828Z"/>
<path id="font_60_90" d="M.16845703 0 .0043945314 .5185547H.13769531L.23486328 .17871094 .32421876 .5185547H.45654298L.54296877 .17871094 .64208987 .5185547H.77734377L.61083987 0H.4790039L.38964845 .3334961 .3017578 0H.16845703Z"/>
<path id="font_60_76" d="M.071777347 .5888672V.7158203H.20898438V.5888672H.071777347M.071777347 0V.5185547H.20898438V0H.071777347Z"/>
<path id="font_60_87" d="M.3095703 .5185547V.4091797H.21582031V.200531C.21582031 .15827434 .2167155 .13365174 .21850586 .12666321 .22029622 .11968485 .22436524 .11391703 .23071289 .10935974 .23706055 .10481262 .24479167 .10253906 .25390626 .10253906 .26660157 .10253906 .2849935 .106933597 .30908204 .115722659L.32080079 .008880615C.28889976-.004852295 .25276695-.01171875 .21240235-.01171875 .18766277-.01171875 .16536458-.0075683596 .14550781 .0007324219 .12565105 .009033203 .111083988 .01977539 .10180664 .032958986 .0925293 .046142579 .08610026 .063964847 .08251953 .08642578 .079589847 .102376308 .078125 .13460286 .078125 .18310547V.4091797H.015136719V.5185547H.078125V.6220703L.21582031 .703125V.5185547H.3095703Z"/>
<path id="font_60_75" d="M.2084961 .7158203V.4522705C.25276695 .50427249 .30566407 .53027346 .3671875 .53027346 .39876304 .53027346 .4272461 .52441409 .45263673 .5126953 .47802735 .50097659 .4971517 .4860026 .51000979 .46777345 .52286788 .44954429 .5316569 .42936198 .53637698 .40722657 .541097 .38509117 .54345706 .3507487 .54345706 .30419923V0H.40625V.27360536C.40625 .32790629 .40364585 .36237083 .3984375 .3769989 .39322917 .39163719 .3840332 .40326438 .3708496 .4118805 .35766603 .4204966 .34114585 .4248047 .32128907 .4248047 .2985026 .4248047 .27815757 .4192759 .2602539 .40821839 .24235027 .39716087 .22924805 .38049827 .22094727 .3582306 .21264649 .33596293 .2084961 .30303956 .2084961 .25946046V0H.07128906V.7158203H.2084961Z"/>
<path id="font_60_36" d="M.7182617 0H.56103518L.49853517 .16308594H.21240235L.15332031 0H0L.2788086 .7158203H.43164063L.7182617 0M.45214845 .2841797 .35351563 .5488281 .25683595 .2841797H.45214845Z"/>
<path id="font_60_85" d="M.203125 0H.06591797V.5185547H.19335938V.44482423C.21516927 .47965495 .2347819 .5026042 .25219728 .5136719 .26961265 .52473959 .28938804 .53027346 .31152345 .53027346 .34277345 .53027346 .37288413 .52164718 .40185548 .50439456L.359375 .38476563C.33626304 .3997396 .31477867 .40722657 .29492188 .40722657 .27571617 .40722657 .2594401 .40193687 .24609375 .39135743 .23274739 .38077799 .22224935 .36165367 .21459961 .33398438 .20694988 .3063151 .203125 .24837239 .203125 .16015625V0Z"/>
<path id="font_60_15" d="M.068359378 .13769531H.2055664V.039230348C.2055664-.0006154378 .20214844-.032048543 .1953125-.05506897 .18847656-.07809957 .17553711-.09875997 .15649414-.11705017 .13745117-.13534038 .11328125-.14970906 .083984378-.16015625L.057128908-.103515628C.08479818-.09436035 .10449219-.08176676 .11621094-.06573486 .12792969-.049713136 .13411458-.027801514 .13476563 0H.068359378V.13769531Z"/>
<path id="font_60_83" d="M.067871097 .5185547H.19580078V.4423828C.21240235 .46842448 .23486328 .48958335 .2631836 .5058594 .2915039 .52213546 .32291667 .53027346 .35742188 .53027346 .41764323 .53027346 .46875 .50667318 .5107422 .45947267 .5527344 .41227214 .57373049 .34651695 .57373049 .26220704 .57373049 .17561849 .5525716 .108317058 .5102539 .060302736 .4679362 .012288411 .41666667-.01171875 .3564453-.01171875 .32779948-.01171875 .3018392-.0060221354 .27856446 .0053710939 .2552897 .016764323 .23079427 .036295576 .20507813 .063964847V-.19726563H.067871097V.5185547M.20361328 .2682953C.20361328 .2101186 .21516927 .1671346 .23828125 .13934326 .26139323 .11155192 .28955079 .09765625 .3227539 .09765625 .35465495 .09765625 .3811849 .1104126 .40234376 .1359253 .4235026 .16143799 .43408204 .20328777 .43408204 .2614746 .43408204 .31575523 .4231771 .35605876 .4013672 .38238526 .37955729 .40871177 .35253907 .421875 .3203125 .421875 .28678385 .421875 .2589518 .4089559 .2368164 .38311769 .21468099 .35727946 .20361328 .31900535 .20361328 .2682953Z"/>
<path id="font_60_88" d="M.41308595 0V.07763672C.39420573 .04996745 .36938478 .028157553 .33862306 .012207031 .30786134-.0037434896 .27539063-.01171875 .24121094-.01171875 .2063802-.01171875 .1751302-.0040690104 .14746094 .011230469 .119791667 .026529948 .09977213 .048014326 .087402347 .075683597 .075032558 .10335287 .068847659 .14160156 .068847659 .19042969V.5185547H.20605469V.28082276C.20605469 .20806885 .20857747 .16349285 .21362305 .14709473 .21866863 .13069661 .22786458 .1177063 .24121094 .10812378 .25455729 .09854126 .27148438 .09375 .2919922 .09375 .3154297 .09375 .33642579 .10016378 .35498048 .11299133 .37353517 .1258189 .38623048 .14173381 .3930664 .16073609 .39990235 .17973836 .4033203 .2262624 .4033203 .30030824V.5185547H.54052737V0H.41308595Z"/>
<path id="font_60_70" d="M.5239258 .36523438 .38867188 .3408203C.3841146 .36767579 .3737793 .38789878 .35766603 .40148927 .34155274 .41507975 .32063804 .421875 .29492188 .421875 .2607422 .421875 .23347982 .41011048 .21313477 .38658143 .19278972 .36305238 .18261719 .32370506 .18261719 .26853944 .18261719 .2071991 .19295247 .16386922 .21362305 .1385498 .23429363 .11324056 .26204429 .10058594 .296875 .10058594 .32291667 .10058594 .34423829 .10799154 .36083985 .122802738 .3774414 .13761394 .38916017 .16308594 .3959961 .19921875L.5307617 .17578125C.51676437 .11393229 .48990885 .067220058 .4501953 .03564453 .41048179 .0040690104 .35725913-.01171875 .29052735-.01171875 .21468099-.01171875 .1542155 .012207031 .10913086 .060058595 .06404623 .107910159 .041503908 .17415364 .041503908 .25878907 .041503908 .34440104 .0641276 .41105143 .109375 .45874024 .15462239 .506429 .21582031 .53027346 .29296876 .53027346 .35611979 .53027346 .4063314 .5166829 .44360353 .48950196 .48087565 .46232096 .5076497 .42089845 .5239258 .36523438Z"/>
<path id="font_60_86" d="M.0234375 .14746094 .16113281 .16894531C.16699219 .14241536 .1788737 .122273769 .19677735 .10852051 .21468099 .09476725 .2397461 .087890628 .27197267 .087890628 .30745445 .087890628 .33414714 .09439087 .35205079 .10739136 .36409507 .116495769 .3701172 .12868755 .3701172 .14396668 .3701172 .15437317 .36686198 .1629893 .36035157 .16981507 .35351563 .17631531 .33821617 .18232727 .31445313 .18785095 .20377605 .21222432 .1336263 .23449199 .104003909 .25465394 .06298828 .2826284 .04248047 .32149253 .04248047 .37124635 .04248047 .41612754 .060221357 .45385234 .095703128 .48442079 .13118489 .5149892 .18619792 .53027346 .2607422 .53027346 .33170573 .53027346 .3844401 .5187581 .4189453 .49572755 .45345054 .47269694 .47721354 .4386393 .49023438 .3935547L.36083985 .36914063C.355306 .3893229 .34480796 .40478517 .3293457 .41552735 .31388346 .42626954 .29182945 .43164063 .2631836 .43164063 .22705078 .43164063 .20117188 .42660014 .18554688 .41651917 .1751302 .40937806 .16992188 .40011598 .16992188 .3887329 .16992188 .37898765 .17447917 .37070213 .18359375 .36387635 .19596355 .35477195 .23868816 .3419291 .31176759 .3253479 .38484703 .3087667 .4358724 .28842674 .46484376 .264328 .4934896 .2398936 .5078125 .20585633 .5078125 .16221619 .5078125 .11465963 .48795573 .073781337 .4482422 .0395813 .40852867 .005381266 .34977214-.01171875 .27197267-.01171875 .20133464-.01171875 .14542644 .0025583904 .10424805 .03111267 .063069667 .059677125 .036132814 .09845988 .0234375 .14746094Z"/>
<path id="font_60_92" d="M.0068359377 .5185547H.15283203L.27685548 .15003968 .39794923 .5185547H.54003909L.3569336 .019363404 .32421876-.07128906C.31217448-.1015625 .30069987-.12467448 .28979493-.140625 .27888999-.15657552 .26635743-.16951497 .25219728-.17944336 .23803711-.18937175 .22062175-.19710286 .19995117-.20263672 .1792806-.20817058 .15592449-.2109375 .12988281-.2109375 .103515628-.2109375 .07763672-.20817058 .052246095-.20263672L.040039064-.095214847C.061523439-.09944662 .08089193-.1015625 .09814453-.1015625 .13004558-.1015625 .15364583-.09220377 .16894531-.07348633 .1842448-.05476888 .19596355-.030924479 .20410156-.001953125L.0068359377 .5185547Z"/>
<path id="font_60_82" d="M.040039064 .26660157C.040039064 .31217448 .05126953 .35628257 .07373047 .39892579 .096191409 .441569 .12801107 .4741211 .16918946 .49658204 .21036785 .51904299 .25634767 .53027346 .3071289 .53027346 .38557945 .53027346 .44986979 .50480148 .5 .45385743 .5501302 .40291343 .5751953 .33854167 .5751953 .2607422 .5751953 .18229167 .54988607 .11726888 .49926759 .06567383 .44864909 .014078776 .38492839-.01171875 .30810548-.01171875 .26057945-.01171875 .21525066-.0009765625 .17211914 .020507813 .12898763 .041992189 .096191409 .07348633 .07373047 .114990238 .05126953 .15649414 .040039064 .20703125 .040039064 .26660157M.18066406 .25927735C.18066406 .20800781 .1928711 .16874187 .21728516 .14147949 .24169922 .114217128 .2718099 .10058594 .3076172 .10058594 .34342448 .10058594 .37345378 .114217128 .39770509 .14147949 .4219564 .16874187 .43408204 .20833333 .43408204 .2602539 .43408204 .3108724 .4219564 .34981285 .39770509 .3770752 .37345378 .40433757 .34342448 .41796876 .3076172 .41796876 .2718099 .41796876 .24169922 .40433757 .21728516 .3770752 .1928711 .34981285 .18066406 .31054688 .18066406 .25927735Z"/>
<path id="font_60_80" d="M.061523439 .5185547H.18798828V.4477539C.23323567 .5027669 .28710938 .53027346 .34960938 .53027346 .3828125 .53027346 .4116211 .523407 .43603517 .5096741 .46044923 .49594117 .48046876 .47517396 .49609376 .44737245 .5188802 .47517396 .54345706 .49594117 .5698242 .5096741 .5961914 .523407 .62434896 .53027346 .6542969 .53027346 .6923828 .53027346 .7246094 .5225423 .75097659 .5070801 .77734377 .49161784 .7970378 .46891276 .8100586 .43896485 .8194987 .41682945 .82421877 .38102214 .82421877 .33154298V0H.6870117V.29605104C.6870117 .34742228 .6822917 .38058473 .67285159 .39553834 .66015627 .41504923 .640625 .4248047 .6142578 .4248047 .59505209 .4248047 .57698568 .4189504 .5600586 .40724183 .54313156 .39554344 .5309245 .37839256 .5234375 .35578919 .5159505 .333196 .51220706 .29751078 .51220706 .24873352V0H.375V.28385926C.375 .33425395 .3725586 .36676536 .36767579 .38139344 .36279298 .3960317 .3552246 .40692649 .3449707 .41407777 .3347168 .42122904 .32080079 .4248047 .30322267 .4248047 .2820638 .4248047 .26302085 .41911317 .24609375 .4077301 .22916667 .3963572 .21704102 .37993876 .2097168 .35847474 .20239258 .3370107 .19873047 .30140687 .19873047 .2516632V0H.061523439V.5185547Z"/>
<path id="font_60_17" d="M.071777347 0V.13769531H.20898438V0H.071777347Z"/>
</defs>
<path transform="matrix(1,0,0,-1,0,773.36)" stroke-width=".263693" stroke-linecap="butt" stroke-miterlimit="10" stroke-linejoin="miter" fill="none" stroke="#000000" d="M10.808534 780.535V790.2873"/>
<path transform="matrix(1,0,0,-1,0,773.36)" stroke-width="1.167358" stroke-linecap="butt" stroke-miterlimit="10" stroke-linejoin="miter" fill="none" stroke="#000000" d="M5.833333 695.749H589.1666"/>
<path transform="matrix(1,0,0,-1,0,773.36)" stroke-width="1.167358" stroke-linecap="butt" stroke-miterlimit="10" stroke-linejoin="miter" fill="none" stroke="#000000" d="M5.833333 684.07546H589.1666"/>
<path transform="matrix(1,0,0,-1,0,773.36)" stroke-width="1.167358" stroke-linecap="butt" stroke-miterlimit="10" stroke-linejoin="miter" fill="none" stroke="#000000" d="M5.833333 672.4018H589.1666"/>
<path transform="matrix(1,0,0,-1,0,773.36)" stroke-width="1.167358" stroke-linecap="butt" stroke-miterlimit="10" stroke-linejoin="miter" fill="none" stroke="#000000" d="M5.833333 660.7282H589.1666"/>
<path transform="matrix(1,0,0,-1,0,773.36)" stroke-width="1.167297" stroke-linecap="butt" stroke-miterlimit="10" stroke-linejoin="miter" fill="none" stroke="#000000" d="M5.833333 649.05459H589.1666"/>
<path transform="matrix(1,0,0,-1,0,773.36)" stroke-width="5.25" stroke-linecap="butt" stroke-miterlimit="10" stroke-linejoin="miter" fill="none" stroke="#000000" d="M23.916668 684.6591V660.14456"/>
<path transform="matrix(1,0,0,-1,0,773.36)" stroke-width="5.25" stroke-linecap="butt" stroke-miterlimit="10" stroke-linejoin="miter" fill="none" stroke="#000000" d="M34.416666 684.6591V660.14456"/>
<path transform="matrix(1,0,0,-1,0,773.36)" stroke-width="2.216667" stroke-linecap="butt" stroke-miterlimit="10" stroke-linejoin="miter" fill="none" stroke="#000000" d="M5.833333 696.3327V648.47097"/>
<path transform="matrix(1,0,0,-1,0,773.36)" stroke-width="1.516655" stroke-linecap="butt" stroke-miterlimit="10" stroke-linejoin="miter" fill="none" stroke="#000000" d="M119.43628 657.0837V745.24508"/>
<path transform="matrix(1,0,0,-1,0,773.36)" stroke-width="1.516647" stroke-linecap="butt" stroke-miterlimit="10" stroke-linejoin="miter" fill="none" stroke="#000000" d="M158.24976 680.4309V745.24508"/>
<path transform="matrix(1,0,0,-1,0,773.36)" stroke-width="1.516693" stroke-linecap="butt" stroke-miterlimit="10" stroke-linejoin="miter" fill="none" stroke="#000000" d="M197.06319 700.7138V745.24508"/>
<path transform="matrix(1,0,0,-1,0,773.36)" stroke-width="1.867798" stroke-linecap="butt" stroke-miterlimit="10" stroke-linejoin="miter" fill="none" stroke="#000000" d="M151.8488 761.5691H119.611278V752.6266"/>
<path transform="matrix(1,0,0,-1,0,773.36)" stroke-width="1.867798" stroke-linecap="butt" stroke-miterlimit="10" stroke-linejoin="miter" fill="none" stroke="#000000" d="M166.16735 761.5691H196.8882V752.6266"/>
<path transform="matrix(1,0,0,-1,0,773.36)" stroke-width="5.603333" stroke-linecap="butt" stroke-miterlimit="10" stroke-linejoin="miter" fill="none" stroke="#000000" d="M119.43627 742.44338H197.06319"/>
<path transform="matrix(1,0,0,-1,0,773.36)" stroke-width="1.516678" stroke-linecap="butt" stroke-miterlimit="10" stroke-linejoin="miter" fill="none" stroke="#000000" d="M237.56128 700.7138V745.24508"/>
<path transform="matrix(1,0,0,-1,0,773.36)" stroke-width="1.516663" stroke-linecap="butt" stroke-miterlimit="10" stroke-linejoin="miter" fill="none" stroke="#000000" d="M276.37477 680.4309V745.24508"/>
<path transform="matrix(1,0,0,-1,0,773.36)" stroke-width="1.516693" stroke-linecap="butt" stroke-miterlimit="10" stroke-linejoin="miter" fill="none" stroke="#000000" d="M315.18818 657.0837V745.24508"/>
<path transform="matrix(1,0,0,-1,0,773.36)" stroke-width="1.867798" stroke-linecap="butt" stroke-miterlimit="10" stroke-linejoin="miter" fill="none" stroke="#000000" d="M269.97383 761.5691H237.7363V752.6266"/>
<path transform="matrix(1,0,0,-1,0,773.36)" stroke-width="1.867798" stroke-linecap="butt" stroke-miterlimit="10" stroke-linejoin="miter" fill="none" stroke="#000000" d="M284.29237 761.5691H315.0132V752.6266"/>
<path transform="matrix(1,0,0,-1,0,773.36)" stroke-width="5.603333" stroke-linecap="butt" stroke-miterlimit="10" stroke-linejoin="miter" fill="none" stroke="#000000" d="M237.56128 742.44338H315.1882"/>
<path transform="matrix(1,0,0,-1,0,773.36)" stroke-width="1.516693" stroke-linecap="butt" stroke-miterlimit="10" stroke-linejoin="miter" fill="none" stroke="#000000" d="M355.68629 680.4309V745.24508"/>
<path transform="matrix(1,0,0,-1,0,773.36)" stroke-width="1.516663" stroke-linecap="butt" stroke-miterlimit="10" stroke-linejoin="miter" fill="none" stroke="#000000" d="M394.49977 680.4309V745.24508"/>
<path transform="matrix(1,0,0,-1,0,773.36)" stroke-width="1.516632" stroke-linecap="butt" stroke-miterlimit="10" stroke-linejoin="miter" fill="none" stroke="#000000" d="M433.31324 700.7138V745.24508"/>
<path transform="matrix(1,0,0,-1,0,773.36)" stroke-width="1.867798" stroke-linecap="butt" stroke-miterlimit="10" stroke-linejoin="miter" fill="none" stroke="#000000" d="M388.09883 761.5691H355.8613V752.6266"/>
<path transform="matrix(1,0,0,-1,0,773.36)" stroke-width="1.867798" stroke-linecap="butt" stroke-miterlimit="10" stroke-linejoin="miter" fill="none" stroke="#000000" d="M402.41737 761.5691H433.1382V752.6266"/>
<path transform="matrix(1,0,0,-1,0,773.36)" stroke-width="5.603333" stroke-linecap="butt" stroke-miterlimit="10" stroke-linejoin="miter" fill="none" stroke="#000000" d="M355.68629 742.44338H433.31327"/>
<path transform="matrix(1,0,0,-1,0,773.36)" stroke-width="1.516663" stroke-linecap="butt" stroke-miterlimit="10" stroke-linejoin="miter" fill="none" stroke="#000000" d="M473.81129 657.0837V745.24508"/>
<path transform="matrix(1,0,0,-1,0,773.36)" stroke-width="1.516663" stroke-linecap="butt" stroke-miterlimit="10" stroke-linejoin="miter" fill="none" stroke="#000000" d="M512.62478 680.4309V745.24508"/>
<path transform="matrix(1,0,0,-1,0,773.36)" stroke-width="1.516663" stroke-linecap="butt" stroke-miterlimit="10" stroke-linejoin="miter" fill="none" stroke="#000000" d="M551.43826 700.7138V745.24508"/>
<path transform="matrix(1,0,0,-1,0,773.36)" stroke-width="1.867798" stroke-linecap="butt" stroke-miterlimit="10" stroke-linejoin="miter" fill="none" stroke="#000000" d="M506.22383 761.5691H473.98628V752.6266"/>
<path transform="matrix(1,0,0,-1,0,773.36)" stroke-width="1.867798" stroke-linecap="butt" stroke-miterlimit="10" stroke-linejoin="miter" fill="none" stroke="#000000" d="M520.54238 761.5691H551.26327V752.6266"/>
<path transform="matrix(1,0,0,-1,0,773.36)" stroke-width="5.603333" stroke-linecap="butt" stroke-miterlimit="10" stroke-linejoin="miter" fill="none" stroke="#000000" d="M473.81123 742.44338H551.43826"/>
<path transform="matrix(1,0,0,-1,0,773.36)" stroke-width="2.216736" stroke-linecap="butt" stroke-miterlimit="10" stroke-linejoin="miter" fill="none" stroke="#000000" d="M589.1666 696.3327V648.47097"/>
<path transform="matrix(1,0,0,-1,0,773.36)" stroke-width="1.167358" stroke-linecap="butt" stroke-miterlimit="10" stroke-linejoin="miter" fill="none" stroke="#000000" d="M5.833333 550.99636H589.1666"/>
<path transform="matrix(1,0,0,-1,0,773.36)" stroke-width="1.167358" stroke-linecap="butt" stroke-miterlimit="10" stroke-linejoin="miter" fill="none" stroke="#000000" d="M5.833333 539.32278H589.1666"/>
<path transform="matrix(1,0,0,-1,0,773.36)" stroke-width="1.167358" stroke-linecap="butt" stroke-miterlimit="10" stroke-linejoin="miter" fill="none" stroke="#000000" d="M5.833333 527.6492H589.1666"/>
<path transform="matrix(1,0,0,-1,0,773.36)" stroke-width="1.167358" stroke-linecap="butt" stroke-miterlimit="10" stroke-linejoin="miter" fill="none" stroke="#000000" d="M5.833333 515.9756H589.1666"/>
<path transform="matrix(1,0,0,-1,0,773.36)" stroke-width="1.167358" stroke-linecap="butt" stroke-miterlimit="10" stroke-linejoin="miter" fill="none" stroke="#000000" d="M5.833333 504.30198H589.1666"/>
<path transform="matrix(1,0,0,-1,0,773.36)" stroke-width="2.216667" stroke-linecap="butt" stroke-miterlimit="10" stroke-linejoin="miter" fill="none" stroke="#000000" d="M5.833333 551.58V503.7183"/>
<path transform="matrix(1,0,0,-1,0,773.36)" stroke-width="1.516666" stroke-linecap="butt" stroke-miterlimit="10" stroke-linejoin="miter" fill="none" stroke="#000000" d="M41.527505 555.9612V600.4924"/>
<path transform="matrix(1,0,0,-1,0,773.36)" stroke-width="1.516663" stroke-linecap="butt" stroke-miterlimit="10" stroke-linejoin="miter" fill="none" stroke="#000000" d="M86.28279 535.6782V600.4924"/>
<path transform="matrix(1,0,0,-1,0,773.36)" stroke-width="1.516663" stroke-linecap="butt" stroke-miterlimit="10" stroke-linejoin="miter" fill="none" stroke="#000000" d="M131.03807 512.33108V600.4924"/>
<path transform="matrix(1,0,0,-1,0,773.36)" stroke-width="1.867798" stroke-linecap="butt" stroke-miterlimit="10" stroke-linejoin="miter" fill="none" stroke="#000000" d="M79.88184 616.81649H41.7025V607.8739"/>
<path transform="matrix(1,0,0,-1,0,773.36)" stroke-width="1.867798" stroke-linecap="butt" stroke-miterlimit="10" stroke-linejoin="miter" fill="none" stroke="#000000" d="M94.20039 616.81649H130.86307V607.8739"/>
<path transform="matrix(1,0,0,-1,0,773.36)" stroke-width="5.603271" stroke-linecap="butt" stroke-miterlimit="10" stroke-linejoin="miter" fill="none" stroke="#000000" d="M41.5275 597.69076H131.03807"/>
<path transform="matrix(1,0,0,-1,0,773.36)" stroke-width="1.516663" stroke-linecap="butt" stroke-miterlimit="10" stroke-linejoin="miter" fill="none" stroke="#000000" d="M177.73586 555.9612V600.4924"/>
<path transform="matrix(1,0,0,-1,0,773.36)" stroke-width="1.516693" stroke-linecap="butt" stroke-miterlimit="10" stroke-linejoin="miter" fill="none" stroke="#000000" d="M222.49114 535.6782V600.4924"/>
<path transform="matrix(1,0,0,-1,0,773.36)" stroke-width="1.516693" stroke-linecap="butt" stroke-miterlimit="10" stroke-linejoin="miter" fill="none" stroke="#000000" d="M267.2464 555.9612V600.4924"/>
<path transform="matrix(1,0,0,-1,0,773.36)" stroke-width="1.867798" stroke-linecap="butt" stroke-miterlimit="10" stroke-linejoin="miter" fill="none" stroke="#000000" d="M216.0902 616.81649H177.91086V607.8739"/>
<path transform="matrix(1,0,0,-1,0,773.36)" stroke-width="1.867798" stroke-linecap="butt" stroke-miterlimit="10" stroke-linejoin="miter" fill="none" stroke="#000000" d="M230.40877 616.81649H267.0714V607.8739"/>
<path transform="matrix(1,0,0,-1,0,773.36)" stroke-width="5.603271" stroke-linecap="butt" stroke-miterlimit="10" stroke-linejoin="miter" fill="none" stroke="#000000" d="M177.73586 597.69076H267.2464"/>
<path transform="matrix(1,0,0,-1,0,773.36)" stroke-width="1.516693" stroke-linecap="butt" stroke-miterlimit="10" stroke-linejoin="miter" fill="none" stroke="#000000" d="M313.9442 512.33108V600.4924"/>
<path transform="matrix(1,0,0,-1,0,773.36)" stroke-width="1.516663" stroke-linecap="butt" stroke-miterlimit="10" stroke-linejoin="miter" fill="none" stroke="#000000" d="M358.69947 535.6782V600.4924"/>
<path transform="matrix(1,0,0,-1,0,773.36)" stroke-width="1.516632" stroke-linecap="butt" stroke-miterlimit="10" stroke-linejoin="miter" fill="none" stroke="#000000" d="M403.45478 555.9612V600.4924"/>
<path transform="matrix(1,0,0,-1,0,773.36)" stroke-width="1.867798" stroke-linecap="butt" stroke-miterlimit="10" stroke-linejoin="miter" fill="none" stroke="#000000" d="M352.29853 616.81649H314.11918V607.8739"/>
<path transform="matrix(1,0,0,-1,0,773.36)" stroke-width="1.867798" stroke-linecap="butt" stroke-miterlimit="10" stroke-linejoin="miter" fill="none" stroke="#000000" d="M366.6171 616.81649H403.27973V607.8739"/>
<path transform="matrix(1,0,0,-1,0,773.36)" stroke-width="5.603271" stroke-linecap="butt" stroke-miterlimit="10" stroke-linejoin="miter" fill="none" stroke="#000000" d="M313.94419 597.69076H403.45478"/>
<path transform="matrix(1,0,0,-1,0,773.36)" stroke-width="1.516632" stroke-linecap="butt" stroke-miterlimit="10" stroke-linejoin="miter" fill="none" stroke="#000000" d="M450.1526 555.9612V600.4924"/>
<path transform="matrix(1,0,0,-1,0,773.36)" stroke-width="1.516632" stroke-linecap="butt" stroke-miterlimit="10" stroke-linejoin="miter" fill="none" stroke="#000000" d="M494.90785 535.6782V600.4924"/>
<path transform="matrix(1,0,0,-1,0,773.36)" stroke-width="1.516602" stroke-linecap="butt" stroke-miterlimit="10" stroke-linejoin="miter" fill="none" stroke="#000000" d="M539.66317 512.33108V600.4924"/>
<path transform="matrix(1,0,0,-1,0,773.36)" stroke-width="1.867798" stroke-linecap="butt" stroke-miterlimit="10" stroke-linejoin="miter" fill="none" stroke="#000000" d="M488.5069 616.81649H450.32759V607.8739"/>
<path transform="matrix(1,0,0,-1,0,773.36)" stroke-width="1.867798" stroke-linecap="butt" stroke-miterlimit="10" stroke-linejoin="miter" fill="none" stroke="#000000" d="M502.82545 616.81649H539.4881V607.8739"/>
<path transform="matrix(1,0,0,-1,0,773.36)" stroke-width="5.603271" stroke-linecap="butt" stroke-miterlimit="10" stroke-linejoin="miter" fill="none" stroke="#000000" d="M450.15257 597.69076H539.66317"/>
<path transform="matrix(1,0,0,-1,0,773.36)" stroke-width="2.216736" stroke-linecap="butt" stroke-miterlimit="10" stroke-linejoin="miter" fill="none" stroke="#000000" d="M578.66677 551.58V503.7183"/>
<path transform="matrix(1,0,0,-1,0,773.36)" stroke-width="6.999939" stroke-linecap="butt" stroke-miterlimit="10" stroke-linejoin="miter" fill="none" stroke="#000000" d="M586.77517 551.58V503.7183"/>
<g clip-path="url(#clip_1)">
<path transform="matrix(2.028409,0,0,-2.029614,8.270993,-6.779236)" d="M.88 .552C1.144 .552 1.316 .404 1.316 .188 1.316-.172 .864-.552 .436-.552 .172-.552 0-.404 0-.188 0 .172 .452 .552 .88 .552"/>
</g>
<g clip-path="url(#clip_2)">
<path transform="matrix(11.666667,0,0,-11.673599,58.916669,101.07495)" d="M.9 1.948C1.052 1.948 1.172 2.004 1.204 2.004 1.248 2.004 1.276 1.964 1.252 1.936L.116 .616H.784V1.14C.784 1.316 .948 1.16 1.164 1.628 1.172 1.644 1.184 1.652 1.2 1.652 1.224 1.652 1.252 1.632 1.252 1.596V.616H1.54C1.58 .616 1.6 .588 1.6 .56 1.6 .532 1.58 .5 1.54 .5H1.252V.468C1.252 .276 1.36 .092 1.54 .092 1.572 .092 1.588 .072 1.588 .048 1.588 .024 1.572 0 1.54 0 1.364 0 1.192 .052 1.016 .052 .84 .052 .668 0 .492 0 .46 0 .444 .024 .444 .048 .444 .072 .46 .092 .492 .092 .672 .092 .784 .276 .784 .468V.5H.116C.024 .5-.008 .556-.008 .592-.008 .648 .552 1.16 .552 1.936 .552 1.972 .576 2 .604 2 .632 2 .752 1.948 .9 1.948"/>
</g>
<g clip-path="url(#clip_3)">
<path transform="matrix(11.666667,0,0,-11.673599,58.916669,124.42212)" d="M.9 1.948C1.052 1.948 1.172 2.004 1.204 2.004 1.248 2.004 1.276 1.964 1.252 1.936L.116 .616H.784V1.14C.784 1.316 .948 1.16 1.164 1.628 1.172 1.644 1.184 1.652 1.2 1.652 1.224 1.652 1.252 1.632 1.252 1.596V.616H1.54C1.58 .616 1.6 .588 1.6 .56 1.6 .532 1.58 .5 1.54 .5H1.252V.468C1.252 .276 1.36 .092 1.54 .092 1.572 .092 1.588 .072 1.588 .048 1.588 .024 1.572 0 1.54 0 1.364 0 1.192 .052 1.016 .052 .84 .052 .668 0 .492 0 .46 0 .444 .024 .444 .048 .444 .072 .46 .092 .492 .092 .672 .092 .784 .276 .784 .468V.5H.116C.024 .5-.008 .556-.008 .592-.008 .648 .552 1.16 .552 1.936 .552 1.972 .576 2 .604 2 .632 2 .752 1.948 .9 1.948"/>
</g>
<g clip-path="url(#clip_4)">
<path transform="matrix(11.666667,0,0,-11.673599,104.84127,118.46857)" d="M.88 .552C1.144 .552 1.316 .404 1.316 .188 1.316-.172 .864-.552 .436-.552 .172-.552 0-.404 0-.188 0 .172 .452 .552 .88 .552"/>
</g>
<g clip-path="url(#clip_5)">
<path transform="matrix(11.666667,0,0,-11.673599,104.84127,77.61096)" d="M.66 .144 1.14 .536C1.152 .544 1.164 .552 1.176 .552 1.188 .552 1.204 .544 1.216 .536L1.296 .472C1.308 .46 1.316 .44 1.316 .424 1.316 .408 1.308 .392 1.296 .38L.832 0 1.296-.38C1.308-.392 1.316-.408 1.316-.424 1.316-.44 1.308-.46 1.296-.472L1.216-.536C1.204-.544 1.188-.552 1.176-.552 1.164-.552 1.152-.544 1.14-.536L.66-.144 .176-.536C.164-.544 .152-.552 .14-.552 .128-.552 .112-.544 .1-.536L.02-.472C.008-.46 0-.44 0-.424 0-.408 .008-.392 .02-.38L.484 0 .02 .38C.008 .392 0 .408 0 .424 0 .44 .008 .46 .02 .472L.1 .536C.112 .544 .128 .552 .14 .552 .152 .552 .164 .544 .176 .536"/>
</g>
<g clip-path="url(#clip_6)">
<path transform="matrix(11.666667,0,0,-11.673599,143.65474,95.1214)" d="M.88 .552C1.144 .552 1.316 .404 1.316 .188 1.316-.172 .864-.552 .436-.552 .172-.552 0-.404 0-.188 0 .172 .452 .552 .88 .552"/>
</g>
<g clip-path="url(#clip_7)">
<path transform="matrix(11.666667,0,0,-11.673599,160.08283,95.1214)" d="M.062-.5C.062-.46 .188-.384 .188 0 .188 .384 .062 .46 .062 .5 .062 .52 .08 .538 .1 .538 .11 .538 .124 .534 .132 .522 .24 .368 .312 .188 .312 0 .312-.188 .24-.368 .132-.522 .124-.534 .11-.538 .1-.538 .08-.538 .062-.52 .062-.5"/>
</g>
<g clip-path="url(#clip_8)">
<path transform="matrix(11.666667,0,0,-11.673599,143.27092,95.1214)" d="M-.062-.5C-.062-.52-.08-.538-.1-.538-.11-.538-.124-.534-.132-.522-.24-.368-.312-.188-.312 0-.312 .188-.24 .368-.132 .522-.124 .534-.11 .538-.1 .538-.08 .538-.062 .52-.062 .5-.062 .46-.188 .384-.188 0-.188-.384-.062-.46-.062-.5"/>
</g>
<g clip-path="url(#clip_9)">
<path transform="matrix(11.666667,0,0,-11.673599,182.46822,77.61096)" d="M.66 .144 1.14 .536C1.152 .544 1.164 .552 1.176 .552 1.188 .552 1.204 .544 1.216 .536L1.296 .472C1.308 .46 1.316 .44 1.316 .424 1.316 .408 1.308 .392 1.296 .38L.832 0 1.296-.38C1.308-.392 1.316-.408 1.316-.424 1.316-.44 1.308-.46 1.296-.472L1.216-.536C1.204-.544 1.188-.552 1.176-.552 1.164-.552 1.152-.544 1.14-.536L.66-.144 .176-.536C.164-.544 .152-.552 .14-.552 .128-.552 .112-.544 .1-.536L.02-.472C.008-.46 0-.44 0-.424 0-.408 .008-.392 .02-.38L.484 0 .02 .38C.008 .392 0 .408 0 .424 0 .44 .008 .46 .02 .472L.1 .536C.112 .544 .128 .552 .14 .552 .152 .552 .164 .544 .176 .536"/>
</g>
<g clip-path="url(#clip_10)">
<path transform="matrix(11.666667,0,0,-11.673599,153.38008,19.242981)" d="M.22671 .350293C.244324 .263359 .274297 .200715 .316628 .162362 .358958 .124009 .410522 .104832 .471319 .104832 .543479 .104832 .604419 .129833 .654136 .179834 .703853 .229835 .728711 .291769 .728712 .365635 .728712 .43609 .705699 .494189 .659676 .539929 .613652 .585668 .555127 .608538 .484103 .608539 .455125 .608539 .419045 .602856 .375862 .591493L.392908 .726155C.403135 .725018 .411374 .72445 .417624 .72445 .482967 .72445 .541775 .741495 .59405 .775588 .646323 .809679 .67246 .862237 .672461 .933262 .672461 .989513 .653425 1.036105 .615357 1.073039 .577287 1.109971 .528138 1.128437 .46791 1.128438 .408249 1.128438 .358532 1.109686 .318758 1.072187 .278984 1.034685 .253415 .978433 .242052 .903432L.088639 .930706C.107389 1.033549 .150004 1.113238 .216483 1.169775 .282962 1.226309 .365634 1.254577 .464501 1.254578 .532684 1.254578 .595469 1.239946 .652858 1.210685 .710245 1.181422 .754138 1.141506 .784537 1.090937 .814935 1.040366 .830134 .986672 .830135 .929854 .830135 .875874 .815645 .826725 .786668 .782407 .757689 .738086 .714791 .702858 .657972 .676722 .731837 .659675 .789224 .624305 .830135 .570611 .871045 .516916 .8915 .449727 .891501 .369043 .891501 .259949 .851726 .167476 .772179 .091621 .692631 .015767 .59206-.02216 .470467-.02216 .360805-.02216 .269751 .010511 .197306 .075854 .124861 .141197 .083525 .225858 .073297 .329838"/>
</g>
<g clip-path="url(#clip_11)">
<path transform="matrix(11.666667,0,0,-11.673599,222.9663,77.61096)" d="M.66 .144 1.14 .536C1.152 .544 1.164 .552 1.176 .552 1.188 .552 1.204 .544 1.216 .536L1.296 .472C1.308 .46 1.316 .44 1.316 .424 1.316 .408 1.308 .392 1.296 .38L.832 0 1.296-.38C1.308-.392 1.316-.408 1.316-.424 1.316-.44 1.308-.46 1.296-.472L1.216-.536C1.204-.544 1.188-.552 1.176-.552 1.164-.552 1.152-.544 1.14-.536L.66-.144 .176-.536C.164-.544 .152-.552 .14-.552 .128-.552 .112-.544 .1-.536L.02-.472C.008-.46 0-.44 0-.424 0-.408 .008-.392 .02-.38L.484 0 .02 .38C.008 .392 0 .408 0 .424 0 .44 .008 .46 .02 .472L.1 .536C.112 .544 .128 .552 .14 .552 .152 .552 .164 .544 .176 .536"/>
</g>
<g clip-path="url(#clip_12)">
<path transform="matrix(11.666667,0,0,-11.673599,261.77973,95.1214)" d="M.88 .552C1.144 .552 1.316 .404 1.316 .188 1.316-.172 .864-.552 .436-.552 .172-.552 0-.404 0-.188 0 .172 .452 .552 .88 .552"/>
</g>
<g clip-path="url(#clip_13)">
<path transform="matrix(11.666667,0,0,-11.673599,278.2078,95.1214)" d="M.062-.5C.062-.46 .188-.384 .188 0 .188 .384 .062 .46 .062 .5 .062 .52 .08 .538 .1 .538 .11 .538 .124 .534 .132 .522 .24 .368 .312 .188 .312 0 .312-.188 .24-.368 .132-.522 .124-.534 .11-.538 .1-.538 .08-.538 .062-.52 .062-.5"/>
</g>
<g clip-path="url(#clip_14)">
<path transform="matrix(11.666667,0,0,-11.673599,261.3959,95.1214)" d="M-.062-.5C-.062-.52-.08-.538-.1-.538-.11-.538-.124-.534-.132-.522-.24-.368-.312-.188-.312 0-.312 .188-.24 .368-.132 .522-.124 .534-.11 .538-.1 .538-.08 .538-.062 .52-.062 .5-.062 .46-.188 .384-.188 0-.188-.384-.062-.46-.062-.5"/>
</g>
<g clip-path="url(#clip_15)">
<path transform="matrix(11.666667,0,0,-11.673599,300.5932,118.46857)" d="M.88 .552C1.144 .552 1.316 .404 1.316 .188 1.316-.172 .864-.552 .436-.552 .172-.552 0-.404 0-.188 0 .172 .452 .552 .88 .552"/>
</g>
<g clip-path="url(#clip_16)">
<path transform="matrix(11.666667,0,0,-11.673599,300.5932,77.61096)" d="M.66 .144 1.14 .536C1.152 .544 1.164 .552 1.176 .552 1.188 .552 1.204 .544 1.216 .536L1.296 .472C1.308 .46 1.316 .44 1.316 .424 1.316 .408 1.308 .392 1.296 .38L.832 0 1.296-.38C1.308-.392 1.316-.408 1.316-.424 1.316-.44 1.308-.46 1.296-.472L1.216-.536C1.204-.544 1.188-.552 1.176-.552 1.164-.552 1.152-.544 1.14-.536L.66-.144 .176-.536C.164-.544 .152-.552 .14-.552 .128-.552 .112-.544 .1-.536L.02-.472C.008-.46 0-.44 0-.424 0-.408 .008-.392 .02-.38L.484 0 .02 .38C.008 .392 0 .408 0 .424 0 .44 .008 .46 .02 .472L.1 .536C.112 .544 .128 .552 .14 .552 .152 .552 .164 .544 .176 .536"/>
</g>
<g clip-path="url(#clip_17)">
<path transform="matrix(11.666667,0,0,-11.673599,271.5051,19.242981)" d="M.22671 .350293C.244324 .263359 .274297 .200715 .316628 .162362 .358958 .124009 .410522 .104832 .471319 .104832 .543479 .104832 .604419 .129833 .654136 .179834 .703853 .229835 .728711 .291769 .728712 .365635 .728712 .43609 .705699 .494189 .659676 .539929 .613652 .585668 .555127 .608538 .484103 .608539 .455125 .608539 .419045 .602856 .375862 .591493L.392908 .726155C.403135 .725018 .411374 .72445 .417624 .72445 .482967 .72445 .541775 .741495 .59405 .775588 .646323 .809679 .67246 .862237 .672461 .933262 .672461 .989513 .653425 1.036105 .615357 1.073039 .577287 1.109971 .528138 1.128437 .46791 1.128438 .408249 1.128438 .358532 1.109686 .318758 1.072187 .278984 1.034685 .253415 .978433 .242052 .903432L.088639 .930706C.107389 1.033549 .150004 1.113238 .216483 1.169775 .282962 1.226309 .365634 1.254577 .464501 1.254578 .532684 1.254578 .595469 1.239946 .652858 1.210685 .710245 1.181422 .754138 1.141506 .784537 1.090937 .814935 1.040366 .830134 .986672 .830135 .929854 .830135 .875874 .815645 .826725 .786668 .782407 .757689 .738086 .714791 .702858 .657972 .676722 .731837 .659675 .789224 .624305 .830135 .570611 .871045 .516916 .8915 .449727 .891501 .369043 .891501 .259949 .851726 .167476 .772179 .091621 .692631 .015767 .59206-.02216 .470467-.02216 .360805-.02216 .269751 .010511 .197306 .075854 .124861 .141197 .083525 .225858 .073297 .329838"/>
</g>
<g clip-path="url(#clip_18)">
<path transform="matrix(11.666667,0,0,-11.673599,341.0913,95.1214)" d="M.88 .552C1.144 .552 1.316 .404 1.316 .188 1.316-.172 .864-.552 .436-.552 .172-.552 0-.404 0-.188 0 .172 .452 .552 .88 .552"/>
</g>
<g clip-path="url(#clip_19)">
<path transform="matrix(11.666667,0,0,-11.673599,341.0913,77.61096)" d="M.66 .144 1.14 .536C1.152 .544 1.164 .552 1.176 .552 1.188 .552 1.204 .544 1.216 .536L1.296 .472C1.308 .46 1.316 .44 1.316 .424 1.316 .408 1.308 .392 1.296 .38L.832 0 1.296-.38C1.308-.392 1.316-.408 1.316-.424 1.316-.44 1.308-.46 1.296-.472L1.216-.536C1.204-.544 1.188-.552 1.176-.552 1.164-.552 1.152-.544 1.14-.536L.66-.144 .176-.536C.164-.544 .152-.552 .14-.552 .128-.552 .112-.544 .1-.536L.02-.472C.008-.46 0-.44 0-.424 0-.408 .008-.392 .02-.38L.484 0 .02 .38C.008 .392 0 .408 0 .424 0 .44 .008 .46 .02 .472L.1 .536C.112 .544 .128 .552 .14 .552 .152 .552 .164 .544 .176 .536"/>
</g>
<g clip-path="url(#clip_20)">
<path transform="matrix(11.666667,0,0,-11.673599,379.90473,95.1214)" d="M.88 .552C1.144 .552 1.316 .404 1.316 .188 1.316-.172 .864-.552 .436-.552 .172-.552 0-.404 0-.188 0 .172 .452 .552 .88 .552"/>
</g>
<g clip-path="url(#clip_21)">
<path transform="matrix(11.666667,0,0,-11.673599,396.33277,95.1214)" d="M.062-.5C.062-.46 .188-.384 .188 0 .188 .384 .062 .46 .062 .5 .062 .52 .08 .538 .1 .538 .11 .538 .124 .534 .132 .522 .24 .368 .312 .188 .312 0 .312-.188 .24-.368 .132-.522 .124-.534 .11-.538 .1-.538 .08-.538 .062-.52 .062-.5"/>
</g>
<g clip-path="url(#clip_22)">
<path transform="matrix(11.666667,0,0,-11.673599,379.5209,95.1214)" d="M-.062-.5C-.062-.52-.08-.538-.1-.538-.11-.538-.124-.534-.132-.522-.24-.368-.312-.188-.312 0-.312 .188-.24 .368-.132 .522-.124 .534-.11 .538-.1 .538-.08 .538-.062 .52-.062 .5-.062 .46-.188 .384-.188 0-.188-.384-.062-.46-.062-.5"/>
</g>
<g clip-path="url(#clip_23)">
<path transform="matrix(11.666667,0,0,-11.673599,418.7182,77.61096)" d="M.66 .144 1.14 .536C1.152 .544 1.164 .552 1.176 .552 1.188 .552 1.204 .544 1.216 .536L1.296 .472C1.308 .46 1.316 .44 1.316 .424 1.316 .408 1.308 .392 1.296 .38L.832 0 1.296-.38C1.308-.392 1.316-.408 1.316-.424 1.316-.44 1.308-.46 1.296-.472L1.216-.536C1.204-.544 1.188-.552 1.176-.552 1.164-.552 1.152-.544 1.14-.536L.66-.144 .176-.536C.164-.544 .152-.552 .14-.552 .128-.552 .112-.544 .1-.536L.02-.472C.008-.46 0-.44 0-.424 0-.408 .008-.392 .02-.38L.484 0 .02 .38C.008 .392 0 .408 0 .424 0 .44 .008 .46 .02 .472L.1 .536C.112 .544 .128 .552 .14 .552 .152 .552 .164 .544 .176 .536"/>
</g>
<g clip-path="url(#clip_24)">
<path transform="matrix(11.666667,0,0,-11.673599,389.63014,19.242981)" d="M.22671 .350293C.244324 .263359 .274297 .200715 .316628 .162362 .358958 .124009 .410522 .104832 .471319 .104832 .543479 .104832 .604419 .129833 .654136 .179834 .703853 .229835 .728711 .291769 .728712 .365635 .728712 .43609 .705699 .494189 .659676 .539929 .613652 .585668 .555127 .608538 .484103 .608539 .455125 .608539 .419045 .602856 .375862 .591493L.392908 .726155C.403135 .725018 .411374 .72445 .417624 .72445 .482967 .72445 .541775 .741495 .59405 .775588 .646323 .809679 .67246 .862237 .672461 .933262 .672461 .989513 .653425 1.036105 .615357 1.073039 .577287 1.109971 .528138 1.128437 .46791 1.128438 .408249 1.128438 .358532 1.109686 .318758 1.072187 .278984 1.034685 .253415 .978433 .242052 .903432L.088639 .930706C.107389 1.033549 .150004 1.113238 .216483 1.169775 .282962 1.226309 .365634 1.254577 .464501 1.254578 .532684 1.254578 .595469 1.239946 .652858 1.210685 .710245 1.181422 .754138 1.141506 .784537 1.090937 .814935 1.040366 .830134 .986672 .830135 .929854 .830135 .875874 .815645 .826725 .786668 .782407 .757689 .738086 .714791 .702858 .657972 .676722 .731837 .659675 .789224 .624305 .830135 .570611 .871045 .516916 .8915 .449727 .891501 .369043 .891501 .259949 .851726 .167476 .772179 .091621 .692631 .015767 .59206-.02216 .470467-.02216 .360805-.02216 .269751 .010511 .197306 .075854 .124861 .141197 .083525 .225858 .073297 .329838"/>
</g>
<g clip-path="url(#clip_25)">
<path transform="matrix(11.666667,0,0,-11.673599,459.21626,118.46857)" d="M.88 .552C1.144 .552 1.316 .404 1.316 .188 1.316-.172 .864-.552 .436-.552 .172-.552 0-.404 0-.188 0 .172 .452 .552 .88 .552"/>
</g>
<g clip-path="url(#clip_26)">
<path transform="matrix(11.666667,0,0,-11.673599,459.21626,77.61096)" d="M.66 .144 1.14 .536C1.152 .544 1.164 .552 1.176 .552 1.188 .552 1.204 .544 1.216 .536L1.296 .472C1.308 .46 1.316 .44 1.316 .424 1.316 .408 1.308 .392 1.296 .38L.832 0 1.296-.38C1.308-.392 1.316-.408 1.316-.424 1.316-.44 1.308-.46 1.296-.472L1.216-.536C1.204-.544 1.188-.552 1.176-.552 1.164-.552 1.152-.544 1.14-.536L.66-.144 .176-.536C.164-.544 .152-.552 .14-.552 .128-.552 .112-.544 .1-.536L.02-.472C.008-.46 0-.44 0-.424 0-.408 .008-.392 .02-.38L.484 0 .02 .38C.008 .392 0 .408 0 .424 0 .44 .008 .46 .02 .472L.1 .536C.112 .544 .128 .552 .14 .552 .152 .552 .164 .544 .176 .536"/>
</g>
<g clip-path="url(#clip_27)">
<path transform="matrix(11.666667,0,0,-11.673599,498.02973,95.1214)" d="M.88 .552C1.144 .552 1.316 .404 1.316 .188 1.316-.172 .864-.552 .436-.552 .172-.552 0-.404 0-.188 0 .172 .452 .552 .88 .552"/>
</g>
<g clip-path="url(#clip_28)">
<path transform="matrix(11.666667,0,0,-11.673599,514.45779,95.1214)" d="M.062-.5C.062-.46 .188-.384 .188 0 .188 .384 .062 .46 .062 .5 .062 .52 .08 .538 .1 .538 .11 .538 .124 .534 .132 .522 .24 .368 .312 .188 .312 0 .312-.188 .24-.368 .132-.522 .124-.534 .11-.538 .1-.538 .08-.538 .062-.52 .062-.5"/>
</g>
<g clip-path="url(#clip_29)">
<path transform="matrix(11.666667,0,0,-11.673599,497.64595,95.1214)" d="M-.062-.5C-.062-.52-.08-.538-.1-.538-.11-.538-.124-.534-.132-.522-.24-.368-.312-.188-.312 0-.312 .188-.24 .368-.132 .522-.124 .534-.11 .538-.1 .538-.08 .538-.062 .52-.062 .5-.062 .46-.188 .384-.188 0-.188-.384-.062-.46-.062-.5"/>
</g>
<g clip-path="url(#clip_30)">
<path transform="matrix(11.666667,0,0,-11.673599,536.8432,77.61096)" d="M.66 .144 1.14 .536C1.152 .544 1.164 .552 1.176 .552 1.188 .552 1.204 .544 1.216 .536L1.296 .472C1.308 .46 1.316 .44 1.316 .424 1.316 .408 1.308 .392 1.296 .38L.832 0 1.296-.38C1.308-.392 1.316-.408 1.316-.424 1.316-.44 1.308-.46 1.296-.472L1.216-.536C1.204-.544 1.188-.552 1.176-.552 1.164-.552 1.152-.544 1.14-.536L.66-.144 .176-.536C.164-.544 .152-.552 .14-.552 .128-.552 .112-.544 .1-.536L.02-.472C.008-.46 0-.44 0-.424 0-.408 .008-.392 .02-.38L.484 0 .02 .38C.008 .392 0 .408 0 .424 0 .44 .008 .46 .02 .472L.1 .536C.112 .544 .128 .552 .14 .552 .152 .552 .164 .544 .176 .536"/>
</g>
<g clip-path="url(#clip_31)">
<path transform="matrix(11.666667,0,0,-11.673599,507.7551,19.242981)" d="M.22671 .350293C.244324 .263359 .274297 .200715 .316628 .162362 .358958 .124009 .410522 .104832 .471319 .104832 .543479 .104832 .604419 .129833 .654136 .179834 .703853 .229835 .728711 .291769 .728712 .365635 .728712 .43609 .705699 .494189 .659676 .539929 .613652 .585668 .555127 .608538 .484103 .608539 .455125 .608539 .419045 .602856 .375862 .591493L.392908 .726155C.403135 .725018 .411374 .72445 .417624 .72445 .482967 .72445 .541775 .741495 .59405 .775588 .646323 .809679 .67246 .862237 .672461 .933262 .672461 .989513 .653425 1.036105 .615357 1.073039 .577287 1.109971 .528138 1.128437 .46791 1.128438 .408249 1.128438 .358532 1.109686 .318758 1.072187 .278984 1.034685 .253415 .978433 .242052 .903432L.088639 .930706C.107389 1.033549 .150004 1.113238 .216483 1.169775 .282962 1.226309 .365634 1.254577 .464501 1.254578 .532684 1.254578 .595469 1.239946 .652858 1.210685 .710245 1.181422 .754138 1.141506 .784537 1.090937 .814935 1.040366 .830134 .986672 .830135 .929854 .830135 .875874 .815645 .826725 .786668 .782407 .757689 .738086 .714791 .702858 .657972 .676722 .731837 .659675 .789224 .624305 .830135 .570611 .871045 .516916 .8915 .449727 .891501 .369043 .891501 .259949 .851726 .167476 .772179 .091621 .692631 .015767 .59206-.02216 .470467-.02216 .360805-.02216 .269751 .010511 .197306 .075854 .124861 .141197 .083525 .225858 .073297 .329838"/>
</g>
<g clip-path="url(#clip_32)">
<path transform="matrix(11.666667,0,0,-11.673599,26.932503,222.36365)" d="M.66 .144 1.14 .536C1.152 .544 1.164 .552 1.176 .552 1.188 .552 1.204 .544 1.216 .536L1.296 .472C1.308 .46 1.316 .44 1.316 .424 1.316 .408 1.308 .392 1.296 .38L.832 0 1.296-.38C1.308-.392 1.316-.408 1.316-.424 1.316-.44 1.308-.46 1.296-.472L1.216-.536C1.204-.544 1.188-.552 1.176-.552 1.164-.552 1.152-.544 1.14-.536L.66-.144 .176-.536C.164-.544 .152-.552 .14-.552 .128-.552 .112-.544 .1-.536L.02-.472C.008-.46 0-.44 0-.424 0-.408 .008-.392 .02-.38L.484 0 .02 .38C.008 .392 0 .408 0 .424 0 .44 .008 .46 .02 .472L.1 .536C.112 .544 .128 .552 .14 .552 .152 .552 .164 .544 .176 .536"/>
</g>
<g clip-path="url(#clip_33)">
<path transform="matrix(11.666667,0,0,-11.673599,71.68779,239.87403)" d="M.88 .552C1.144 .552 1.316 .404 1.316 .188 1.316-.172 .864-.552 .436-.552 .172-.552 0-.404 0-.188 0 .172 .452 .552 .88 .552"/>
</g>
<g clip-path="url(#clip_34)">
<path transform="matrix(11.666667,0,0,-11.673599,88.11586,239.87403)" d="M.062-.5C.062-.46 .188-.384 .188 0 .188 .384 .062 .46 .062 .5 .062 .52 .08 .538 .1 .538 .11 .538 .124 .534 .132 .522 .24 .368 .312 .188 .312 0 .312-.188 .24-.368 .132-.522 .124-.534 .11-.538 .1-.538 .08-.538 .062-.52 .062-.5"/>
</g>
<g clip-path="url(#clip_35)">
<path transform="matrix(11.666667,0,0,-11.673599,71.303958,239.87403)" d="M-.062-.5C-.062-.52-.08-.538-.1-.538-.11-.538-.124-.534-.132-.522-.24-.368-.312-.188-.312 0-.312 .188-.24 .368-.132 .522-.124 .534-.11 .538-.1 .538-.08 .538-.062 .52-.062 .5-.062 .46-.188 .384-.188 0-.188-.384-.062-.46-.062-.5"/>
</g>
<g clip-path="url(#clip_36)">
<path transform="matrix(11.666667,0,0,-11.673599,116.44306,263.2212)" d="M.88 .552C1.144 .552 1.316 .404 1.316 .188 1.316-.172 .864-.552 .436-.552 .172-.552 0-.404 0-.188 0 .172 .452 .552 .88 .552"/>
</g>
<g clip-path="url(#clip_37)">
<path transform="matrix(11.666667,0,0,-11.673599,116.44306,222.36365)" d="M.66 .144 1.14 .536C1.152 .544 1.164 .552 1.176 .552 1.188 .552 1.204 .544 1.216 .536L1.296 .472C1.308 .46 1.316 .44 1.316 .424 1.316 .408 1.308 .392 1.296 .38L.832 0 1.296-.38C1.308-.392 1.316-.408 1.316-.424 1.316-.44 1.308-.46 1.296-.472L1.216-.536C1.204-.544 1.188-.552 1.176-.552 1.164-.552 1.152-.544 1.14-.536L.66-.144 .176-.536C.164-.544 .152-.552 .14-.552 .128-.552 .112-.544 .1-.536L.02-.472C.008-.46 0-.44 0-.424 0-.408 .008-.392 .02-.38L.484 0 .02 .38C.008 .392 0 .408 0 .424 0 .44 .008 .46 .02 .472L.1 .536C.112 .544 .128 .552 .14 .552 .152 .552 .164 .544 .176 .536"/>
</g>
<g clip-path="url(#clip_38)">
<path transform="matrix(11.666667,0,0,-11.673599,81.41313,163.9956)" d="M.22671 .350293C.244324 .263359 .274297 .200715 .316628 .162362 .358958 .124009 .410522 .104832 .471319 .104832 .543479 .104832 .604419 .129833 .654136 .179834 .703853 .229835 .728711 .291769 .728712 .365635 .728712 .43609 .705699 .494189 .659676 .539929 .613652 .585668 .555127 .608538 .484103 .608539 .455125 .608539 .419045 .602856 .375862 .591493L.392908 .726155C.403135 .725018 .411374 .72445 .417624 .72445 .482967 .72445 .541775 .741495 .59405 .775588 .646323 .809679 .67246 .862237 .672461 .933262 .672461 .989513 .653425 1.036105 .615357 1.073039 .577287 1.109971 .528138 1.128437 .46791 1.128438 .408249 1.128438 .358532 1.109686 .318758 1.072187 .278984 1.034685 .253415 .978433 .242052 .903432L.088639 .930706C.107389 1.033549 .150004 1.113238 .216483 1.169775 .282962 1.226309 .365634 1.254577 .464501 1.254578 .532684 1.254578 .595469 1.239946 .652858 1.210685 .710245 1.181422 .754138 1.141506 .784537 1.090937 .814935 1.040366 .830134 .986672 .830135 .929854 .830135 .875874 .815645 .826725 .786668 .782407 .757689 .738086 .714791 .702858 .657972 .676722 .731837 .659675 .789224 .624305 .830135 .570611 .871045 .516916 .8915 .449727 .891501 .369043 .891501 .259949 .851726 .167476 .772179 .091621 .692631 .015767 .59206-.02216 .470467-.02216 .360805-.02216 .269751 .010511 .197306 .075854 .124861 .141197 .083525 .225858 .073297 .329838"/>
</g>
<g clip-path="url(#clip_39)">
<path transform="matrix(11.666667,0,0,-11.673599,163.14086,222.36365)" d="M.66 .144 1.14 .536C1.152 .544 1.164 .552 1.176 .552 1.188 .552 1.204 .544 1.216 .536L1.296 .472C1.308 .46 1.316 .44 1.316 .424 1.316 .408 1.308 .392 1.296 .38L.832 0 1.296-.38C1.308-.392 1.316-.408 1.316-.424 1.316-.44 1.308-.46 1.296-.472L1.216-.536C1.204-.544 1.188-.552 1.176-.552 1.164-.552 1.152-.544 1.14-.536L.66-.144 .176-.536C.164-.544 .152-.552 .14-.552 .128-.552 .112-.544 .1-.536L.02-.472C.008-.46 0-.44 0-.424 0-.408 .008-.392 .02-.38L.484 0 .02 .38C.008 .392 0 .408 0 .424 0 .44 .008 .46 .02 .472L.1 .536C.112 .544 .128 .552 .14 .552 .152 .552 .164 .544 .176 .536"/>
</g>
<g clip-path="url(#clip_40)">
<path transform="matrix(11.666667,0,0,-11.673599,207.89614,239.87403)" d="M.88 .552C1.144 .552 1.316 .404 1.316 .188 1.316-.172 .864-.552 .436-.552 .172-.552 0-.404 0-.188 0 .172 .452 .552 .88 .552"/>
</g>
<g clip-path="url(#clip_41)">
<path transform="matrix(11.666667,0,0,-11.673599,224.3242,239.87403)" d="M.062-.5C.062-.46 .188-.384 .188 0 .188 .384 .062 .46 .062 .5 .062 .52 .08 .538 .1 .538 .11 .538 .124 .534 .132 .522 .24 .368 .312 .188 .312 0 .312-.188 .24-.368 .132-.522 .124-.534 .11-.538 .1-.538 .08-.538 .062-.52 .062-.5"/>
</g>
<g clip-path="url(#clip_42)">
<path transform="matrix(11.666667,0,0,-11.673599,207.5123,239.87403)" d="M-.062-.5C-.062-.52-.08-.538-.1-.538-.11-.538-.124-.534-.132-.522-.24-.368-.312-.188-.312 0-.312 .188-.24 .368-.132 .522-.124 .534-.11 .538-.1 .538-.08 .538-.062 .52-.062 .5-.062 .46-.188 .384-.188 0-.188-.384-.062-.46-.062-.5"/>
</g>
<g clip-path="url(#clip_43)">
<path transform="matrix(11.666667,0,0,-11.673599,252.6514,222.36365)" d="M.66 .144 1.14 .536C1.152 .544 1.164 .552 1.176 .552 1.188 .552 1.204 .544 1.216 .536L1.296 .472C1.308 .46 1.316 .44 1.316 .424 1.316 .408 1.308 .392 1.296 .38L.832 0 1.296-.38C1.308-.392 1.316-.408 1.316-.424 1.316-.44 1.308-.46 1.296-.472L1.216-.536C1.204-.544 1.188-.552 1.176-.552 1.164-.552 1.152-.544 1.14-.536L.66-.144 .176-.536C.164-.544 .152-.552 .14-.552 .128-.552 .112-.544 .1-.536L.02-.472C.008-.46 0-.44 0-.424 0-.408 .008-.392 .02-.38L.484 0 .02 .38C.008 .392 0 .408 0 .424 0 .44 .008 .46 .02 .472L.1 .536C.112 .544 .128 .552 .14 .552 .152 .552 .164 .544 .176 .536"/>
</g>
<g clip-path="url(#clip_44)">
<path transform="matrix(11.666667,0,0,-11.673599,217.62149,163.9956)" d="M.22671 .350293C.244324 .263359 .274297 .200715 .316628 .162362 .358958 .124009 .410522 .104832 .471319 .104832 .543479 .104832 .604419 .129833 .654136 .179834 .703853 .229835 .728711 .291769 .728712 .365635 .728712 .43609 .705699 .494189 .659676 .539929 .613652 .585668 .555127 .608538 .484103 .608539 .455125 .608539 .419045 .602856 .375862 .591493L.392908 .726155C.403135 .725018 .411374 .72445 .417624 .72445 .482967 .72445 .541775 .741495 .59405 .775588 .646323 .809679 .67246 .862237 .672461 .933262 .672461 .989513 .653425 1.036105 .615357 1.073039 .577287 1.109971 .528138 1.128437 .46791 1.128438 .408249 1.128438 .358532 1.109686 .318758 1.072187 .278984 1.034685 .253415 .978433 .242052 .903432L.088639 .930706C.107389 1.033549 .150004 1.113238 .216483 1.169775 .282962 1.226309 .365634 1.254577 .464501 1.254578 .532684 1.254578 .595469 1.239946 .652858 1.210685 .710245 1.181422 .754138 1.141506 .784537 1.090937 .814935 1.040366 .830134 .986672 .830135 .929854 .830135 .875874 .815645 .826725 .786668 .782407 .757689 .738086 .714791 .702858 .657972 .676722 .731837 .659675 .789224 .624305 .830135 .570611 .871045 .516916 .8915 .449727 .891501 .369043 .891501 .259949 .851726 .167476 .772179 .091621 .692631 .015767 .59206-.02216 .470467-.02216 .360805-.02216 .269751 .010511 .197306 .075854 .124861 .141197 .083525 .225858 .073297 .329838"/>
</g>
<g clip-path="url(#clip_45)">
<path transform="matrix(11.666667,0,0,-11.673599,299.34919,263.2212)" d="M.88 .552C1.144 .552 1.316 .404 1.316 .188 1.316-.172 .864-.552 .436-.552 .172-.552 0-.404 0-.188 0 .172 .452 .552 .88 .552"/>
</g>
<g clip-path="url(#clip_46)">
<path transform="matrix(11.666667,0,0,-11.673599,299.34919,239.87403)" d="M.88 .552C1.144 .552 1.316 .404 1.316 .188 1.316-.172 .864-.552 .436-.552 .172-.552 0-.404 0-.188 0 .172 .452 .552 .88 .552"/>
</g>
<g clip-path="url(#clip_47)">
<path transform="matrix(11.666667,0,0,-11.673599,299.34919,222.36365)" d="M.66 .144 1.14 .536C1.152 .544 1.164 .552 1.176 .552 1.188 .552 1.204 .544 1.216 .536L1.296 .472C1.308 .46 1.316 .44 1.316 .424 1.316 .408 1.308 .392 1.296 .38L.832 0 1.296-.38C1.308-.392 1.316-.408 1.316-.424 1.316-.44 1.308-.46 1.296-.472L1.216-.536C1.204-.544 1.188-.552 1.176-.552 1.164-.552 1.152-.544 1.14-.536L.66-.144 .176-.536C.164-.544 .152-.552 .14-.552 .128-.552 .112-.544 .1-.536L.02-.472C.008-.46 0-.44 0-.424 0-.408 .008-.392 .02-.38L.484 0 .02 .38C.008 .392 0 .408 0 .424 0 .44 .008 .46 .02 .472L.1 .536C.112 .544 .128 .552 .14 .552 .152 .552 .164 .544 .176 .536"/>
</g>
<g clip-path="url(#clip_48)">
<path transform="matrix(11.666667,0,0,-11.673599,344.10447,239.87403)" d="M.88 .552C1.144 .552 1.316 .404 1.316 .188 1.316-.172 .864-.552 .436-.552 .172-.552 0-.404 0-.188 0 .172 .452 .552 .88 .552"/>
</g>
<g clip-path="url(#clip_49)">
<path transform="matrix(11.666667,0,0,-11.673599,360.53254,239.87403)" d="M.062-.5C.062-.46 .188-.384 .188 0 .188 .384 .062 .46 .062 .5 .062 .52 .08 .538 .1 .538 .11 .538 .124 .534 .132 .522 .24 .368 .312 .188 .312 0 .312-.188 .24-.368 .132-.522 .124-.534 .11-.538 .1-.538 .08-.538 .062-.52 .062-.5"/>
</g>
<g clip-path="url(#clip_50)">
<path transform="matrix(11.666667,0,0,-11.673599,343.7206,239.87403)" d="M-.062-.5C-.062-.52-.08-.538-.1-.538-.11-.538-.124-.534-.132-.522-.24-.368-.312-.188-.312 0-.312 .188-.24 .368-.132 .522-.124 .534-.11 .538-.1 .538-.08 .538-.062 .52-.062 .5-.062 .46-.188 .384-.188 0-.188-.384-.062-.46-.062-.5"/>
</g>
<g clip-path="url(#clip_51)">
<path transform="matrix(11.666667,0,0,-11.673599,388.8597,222.36365)" d="M.66 .144 1.14 .536C1.152 .544 1.164 .552 1.176 .552 1.188 .552 1.204 .544 1.216 .536L1.296 .472C1.308 .46 1.316 .44 1.316 .424 1.316 .408 1.308 .392 1.296 .38L.832 0 1.296-.38C1.308-.392 1.316-.408 1.316-.424 1.316-.44 1.308-.46 1.296-.472L1.216-.536C1.204-.544 1.188-.552 1.176-.552 1.164-.552 1.152-.544 1.14-.536L.66-.144 .176-.536C.164-.544 .152-.552 .14-.552 .128-.552 .112-.544 .1-.536L.02-.472C.008-.46 0-.44 0-.424 0-.408 .008-.392 .02-.38L.484 0 .02 .38C.008 .392 0 .408 0 .424 0 .44 .008 .46 .02 .472L.1 .536C.112 .544 .128 .552 .14 .552 .152 .552 .164 .544 .176 .536"/>
</g>
<g clip-path="url(#clip_52)">
<path transform="matrix(11.666667,0,0,-11.673599,353.82984,163.9956)" d="M.22671 .350293C.244324 .263359 .274297 .200715 .316628 .162362 .358958 .124009 .410522 .104832 .471319 .104832 .543479 .104832 .604419 .129833 .654136 .179834 .703853 .229835 .728711 .291769 .728712 .365635 .728712 .43609 .705699 .494189 .659676 .539929 .613652 .585668 .555127 .608538 .484103 .608539 .455125 .608539 .419045 .602856 .375862 .591493L.392908 .726155C.403135 .725018 .411374 .72445 .417624 .72445 .482967 .72445 .541775 .741495 .59405 .775588 .646323 .809679 .67246 .862237 .672461 .933262 .672461 .989513 .653425 1.036105 .615357 1.073039 .577287 1.109971 .528138 1.128437 .46791 1.128438 .408249 1.128438 .358532 1.109686 .318758 1.072187 .278984 1.034685 .253415 .978433 .242052 .903432L.088639 .930706C.107389 1.033549 .150004 1.113238 .216483 1.169775 .282962 1.226309 .365634 1.254577 .464501 1.254578 .532684 1.254578 .595469 1.239946 .652858 1.210685 .710245 1.181422 .754138 1.141506 .784537 1.090937 .814935 1.040366 .830134 .986672 .830135 .929854 .830135 .875874 .815645 .826725 .786668 .782407 .757689 .738086 .714791 .702858 .657972 .676722 .731837 .659675 .789224 .624305 .830135 .570611 .871045 .516916 .8915 .449727 .891501 .369043 .891501 .259949 .851726 .167476 .772179 .091621 .692631 .015767 .59206-.02216 .470467-.02216 .360805-.02216 .269751 .010511 .197306 .075854 .124861 .141197 .083525 .225858 .073297 .329838"/>
</g>
<g clip-path="url(#clip_53)">
<path transform="matrix(11.666667,0,0,-11.673599,435.55757,222.36365)" d="M.66 .144 1.14 .536C1.152 .544 1.164 .552 1.176 .552 1.188 .552 1.204 .544 1.216 .536L1.296 .472C1.308 .46 1.316 .44 1.316 .424 1.316 .408 1.308 .392 1.296 .38L.832 0 1.296-.38C1.308-.392 1.316-.408 1.316-.424 1.316-.44 1.308-.46 1.296-.472L1.216-.536C1.204-.544 1.188-.552 1.176-.552 1.164-.552 1.152-.544 1.14-.536L.66-.144 .176-.536C.164-.544 .152-.552 .14-.552 .128-.552 .112-.544 .1-.536L.02-.472C.008-.46 0-.44 0-.424 0-.408 .008-.392 .02-.38L.484 0 .02 .38C.008 .392 0 .408 0 .424 0 .44 .008 .46 .02 .472L.1 .536C.112 .544 .128 .552 .14 .552 .152 .552 .164 .544 .176 .536"/>
</g>
<g clip-path="url(#clip_54)">
<path transform="matrix(11.666667,0,0,-11.673599,480.3128,239.87403)" d="M.88 .552C1.144 .552 1.316 .404 1.316 .188 1.316-.172 .864-.552 .436-.552 .172-.552 0-.404 0-.188 0 .172 .452 .552 .88 .552"/>
</g>
<g clip-path="url(#clip_55)">
<path transform="matrix(11.666667,0,0,-11.673599,496.74089,239.87403)" d="M.062-.5C.062-.46 .188-.384 .188 0 .188 .384 .062 .46 .062 .5 .062 .52 .08 .538 .1 .538 .11 .538 .124 .534 .132 .522 .24 .368 .312 .188 .312 0 .312-.188 .24-.368 .132-.522 .124-.534 .11-.538 .1-.538 .08-.538 .062-.52 .062-.5"/>
</g>
<g clip-path="url(#clip_56)">
<path transform="matrix(11.666667,0,0,-11.673599,479.92903,239.87403)" d="M-.062-.5C-.062-.52-.08-.538-.1-.538-.11-.538-.124-.534-.132-.522-.24-.368-.312-.188-.312 0-.312 .188-.24 .368-.132 .522-.124 .534-.11 .538-.1 .538-.08 .538-.062 .52-.062 .5-.062 .46-.188 .384-.188 0-.188-.384-.062-.46-.062-.5"/>
</g>
<g clip-path="url(#clip_57)">
<path transform="matrix(11.666667,0,0,-11.673599,525.0681,263.2212)" d="M.88 .552C1.144 .552 1.316 .404 1.316 .188 1.316-.172 .864-.552 .436-.552 .172-.552 0-.404 0-.188 0 .172 .452 .552 .88 .552"/>
</g>
<g clip-path="url(#clip_58)">
<path transform="matrix(11.666667,0,0,-11.673599,525.0681,222.36365)" d="M.66 .144 1.14 .536C1.152 .544 1.164 .552 1.176 .552 1.188 .552 1.204 .544 1.216 .536L1.296 .472C1.308 .46 1.316 .44 1.316 .424 1.316 .408 1.308 .392 1.296 .38L.832 0 1.296-.38C1.308-.392 1.316-.408 1.316-.424 1.316-.44 1.308-.46 1.296-.472L1.216-.536C1.204-.544 1.188-.552 1.176-.552 1.164-.552 1.152-.544 1.14-.536L.66-.144 .176-.536C.164-.544 .152-.552 .14-.552 .128-.552 .112-.544 .1-.536L.02-.472C.008-.46 0-.44 0-.424 0-.408 .008-.392 .02-.38L.484 0 .02 .38C.008 .392 0 .408 0 .424 0 .44 .008 .46 .02 .472L.1 .536C.112 .544 .128 .552 .14 .552 .152 .552 .164 .544 .176 .536"/>
</g>
<g clip-path="url(#clip_59)">
<path transform="matrix(11.666667,0,0,-11.673599,490.0382,163.9956)" d="M.22671 .350293C.244324 .263359 .274297 .200715 .316628 .162362 .358958 .124009 .410522 .104832 .471319 .104832 .543479 .104832 .604419 .129833 .654136 .179834 .703853 .229835 .728711 .291769 .728712 .365635 .728712 .43609 .705699 .494189 .659676 .539929 .613652 .585668 .555127 .608538 .484103 .608539 .455125 .608539 .419045 .602856 .375862 .591493L.392908 .726155C.403135 .725018 .411374 .72445 .417624 .72445 .482967 .72445 .541775 .741495 .59405 .775588 .646323 .809679 .67246 .862237 .672461 .933262 .672461 .989513 .653425 1.036105 .615357 1.073039 .577287 1.109971 .528138 1.128437 .46791 1.128438 .408249 1.128438 .358532 1.109686 .318758 1.072187 .278984 1.034685 .253415 .978433 .242052 .903432L.088639 .930706C.107389 1.033549 .150004 1.113238 .216483 1.169775 .282962 1.226309 .365634 1.254577 .464501 1.254578 .532684 1.254578 .595469 1.239946 .652858 1.210685 .710245 1.181422 .754138 1.141506 .784537 1.090937 .814935 1.040366 .830134 .986672 .830135 .929854 .830135 .875874 .815645 .826725 .786668 .782407 .757689 .738086 .714791 .702858 .657972 .676722 .731837 .659675 .789224 .624305 .830135 .570611 .871045 .516916 .8915 .449727 .891501 .369043 .891501 .259949 .851726 .167476 .772179 .091621 .692631 .015767 .59206-.02216 .470467-.02216 .360805-.02216 .269751 .010511 .197306 .075854 .124861 .141197 .083525 .225858 .073297 .329838"/>
</g>
<use data-text="9" xlink:href="#font_60_28" transform="matrix(8.113642,0,0,-8.1184639,21.101248,-6.9821779)"/>
<use data-text="2" xlink:href="#font_60_21" transform="matrix(8.113642,0,0,-8.1184639,25.612435,-6.9821779)"/>
<use data-text="=" xlink:href="#font_60_32" transform="matrix(8.113642,0,0,-8.1184639,14.112811,-6.9821779)"/>
<use data-text=" " xlink:href="#font_60_3" transform="matrix(8.113642,0,0,-8.1184639,18.843064,-6.9821779)"/>
<use data-text="M" xlink:href="#font_60_48" transform="matrix(8.113642,0,0,-8.1184639,462.96174,-45.637697)" fill="#cccccc"/>
<use data-text="a" xlink:href="#font_60_68" transform="matrix(8.113642,0,0,-8.1184639,469.7204,-45.637697)" fill="#cccccc"/>
<use data-text="d" xlink:href="#font_60_71" transform="matrix(8.113642,0,0,-8.1184639,474.2316,-45.637697)" fill="#cccccc"/>
<use data-text="e" xlink:href="#font_60_72" transform="matrix(8.113642,0,0,-8.1184639,479.1809,-45.637697)" fill="#cccccc"/>
<use data-text=" " xlink:href="#font_60_3" transform="matrix(8.113642,0,0,-8.1184639,483.6921,-45.637697)" fill="#cccccc"/>
<use data-text="w" xlink:href="#font_60_90" transform="matrix(8.113642,0,0,-8.1184639,485.93959,-45.637697)" fill="#cccccc"/>
<use data-text="i" xlink:href="#font_60_76" transform="matrix(8.113642,0,0,-8.1184639,492.24388,-45.637697)" fill="#cccccc"/>
<use data-text="t" xlink:href="#font_60_87" transform="matrix(8.113642,0,0,-8.1184639,494.49134,-45.637697)" fill="#cccccc"/>
<use data-text="h" xlink:href="#font_60_75" transform="matrix(8.113642,0,0,-8.1184639,497.19319,-45.637697)" fill="#cccccc"/>
<use data-text=" " xlink:href="#font_60_3" transform="matrix(8.113642,0,0,-8.1184639,502.1425,-45.637697)" fill="#cccccc"/>
<use data-text="A" xlink:href="#font_60_36" transform="matrix(8.113642,0,0,-8.1184639,504.38996,-45.637697)" fill="#cccccc"/>
<use data-text="e" xlink:href="#font_60_72" transform="matrix(8.113642,0,0,-8.1184639,510.24803,-45.637697)" fill="#cccccc"/>
<use data-text="r" xlink:href="#font_60_85" transform="matrix(8.113642,0,0,-8.1184639,514.7592,-45.637697)" fill="#cccccc"/>
<use data-text="e" xlink:href="#font_60_72" transform="matrix(8.113642,0,0,-8.1184639,517.9154,-45.637697)" fill="#cccccc"/>
<use data-text="d" xlink:href="#font_60_71" transform="matrix(8.113642,0,0,-8.1184639,522.4266,-45.637697)" fill="#cccccc"/>
<use data-text="," xlink:href="#font_60_15" transform="matrix(8.113642,0,0,-8.1184639,527.3759,-45.637697)" fill="#cccccc"/>
<use data-text=" " xlink:href="#font_60_3" transform="matrix(8.113642,0,0,-8.1184639,529.6234,-45.637697)" fill="#cccccc"/>
<use data-text="p" xlink:href="#font_60_83" transform="matrix(8.113642,0,0,-8.1184639,531.8709,-45.637697)" fill="#cccccc"/>
<use data-text="u" xlink:href="#font_60_88" transform="matrix(8.113642,0,0,-8.1184639,536.82028,-45.637697)" fill="#cccccc"/>
<use data-text="r" xlink:href="#font_60_85" transform="matrix(8.113642,0,0,-8.1184639,541.7696,-45.637697)" fill="#cccccc"/>
<use data-text="c" xlink:href="#font_60_70" transform="matrix(8.113642,0,0,-8.1184639,544.9258,-45.637697)" fill="#cccccc"/>
<use data-text="h" xlink:href="#font_60_75" transform="matrix(8.113642,0,0,-8.1184639,549.43698,-45.637697)" fill="#cccccc"/>
<use data-text="a" xlink:href="#font_60_68" transform="matrix(8.113642,0,0,-8.1184639,554.3863,-45.637697)" fill="#cccccc"/>
<use data-text="s" xlink:href="#font_60_86" transform="matrix(8.113642,0,0,-8.1184639,558.89749,-45.637697)" fill="#cccccc"/>
<use data-text="e" xlink:href="#font_60_72" transform="matrix(8.113642,0,0,-8.1184639,563.4086,-45.637697)" fill="#cccccc"/>
<use data-text="y" xlink:href="#font_60_92" transform="matrix(8.113642,0,0,-8.1184639,462.96174,-36.1662)" fill="#cccccc"/>
<use data-text="o" xlink:href="#font_60_82" transform="matrix(8.113642,0,0,-8.1184639,467.47294,-36.1662)" fill="#cccccc"/>
<use data-text="u" xlink:href="#font_60_88" transform="matrix(8.113642,0,0,-8.1184639,472.42225,-36.1662)" fill="#cccccc"/>
<use data-text="r" xlink:href="#font_60_85" transform="matrix(8.113642,0,0,-8.1184639,477.37156,-36.1662)" fill="#cccccc"/>
<use data-text=" " xlink:href="#font_60_3" transform="matrix(8.113642,0,0,-8.1184639,480.52778,-36.1662)" fill="#cccccc"/>
<use data-text="c" xlink:href="#font_60_70" transform="matrix(8.113642,0,0,-8.1184639,482.77525,-36.1662)" fill="#cccccc"/>
<use data-text="o" xlink:href="#font_60_82" transform="matrix(8.113642,0,0,-8.1184639,487.28645,-36.1662)" fill="#cccccc"/>
<use data-text="p" xlink:href="#font_60_83" transform="matrix(8.113642,0,0,-8.1184639,492.23576,-36.1662)" fill="#cccccc"/>
<use data-text="y" xlink:href="#font_60_92" transform="matrix(8.113642,0,0,-8.1184639,497.18507,-36.1662)" fill="#cccccc"/>
<use data-text=" " xlink:href="#font_60_3" transform="matrix(8.113642,0,0,-8.1184639,501.69627,-36.1662)" fill="#cccccc"/>
<use data-text="a" xlink:href="#font_60_68" transform="matrix(8.113642,0,0,-8.1184639,503.94374,-36.1662)" fill="#cccccc"/>
<use data-text="t" xlink:href="#font_60_87" transform="matrix(8.113642,0,0,-8.1184639,508.45494,-36.1662)" fill="#cccccc"/>
<use data-text=" " xlink:href="#font_60_3" transform="matrix(8.113642,0,0,-8.1184639,511.15678,-36.1662)" fill="#cccccc"/>
<use data-text="a" xlink:href="#font_60_68" transform="matrix(8.113642,0,0,-8.1184639,513.40426,-36.1662)" fill="#cccccc"/>
<use data-text="e" xlink:href="#font_60_72" transform="matrix(8.113642,0,0,-8.1184639,517.9154,-36.1662)" fill="#cccccc"/>
<use data-text="r" xlink:href="#font_60_85" transform="matrix(8.113642,0,0,-8.1184639,522.4266,-36.1662)" fill="#cccccc"/>
<use data-text="o" xlink:href="#font_60_82" transform="matrix(8.113642,0,0,-8.1184639,525.58279,-36.1662)" fill="#cccccc"/>
<use data-text="d" xlink:href="#font_60_71" transform="matrix(8.113642,0,0,-8.1184639,530.5321,-36.1662)" fill="#cccccc"/>
<use data-text="r" xlink:href="#font_60_85" transform="matrix(8.113642,0,0,-8.1184639,535.48147,-36.1662)" fill="#cccccc"/>
<use data-text="u" xlink:href="#font_60_88" transform="matrix(8.113642,0,0,-8.1184639,538.63766,-36.1662)" fill="#cccccc"/>
<use data-text="m" xlink:href="#font_60_80" transform="matrix(8.113642,0,0,-8.1184639,543.587,-36.1662)" fill="#cccccc"/>
<use data-text="s" xlink:href="#font_60_86" transform="matrix(8.113642,0,0,-8.1184639,550.8,-36.1662)" fill="#cccccc"/>
<use data-text="." xlink:href="#font_60_17" transform="matrix(8.113642,0,0,-8.1184639,555.31118,-36.1662)" fill="#cccccc"/>
<use data-text="c" xlink:href="#font_60_70" transform="matrix(8.113642,0,0,-8.1184639,557.55868,-36.1662)" fill="#cccccc"/>
<use data-text="o" xlink:href="#font_60_82" transform="matrix(8.113642,0,0,-8.1184639,562.0698,-36.1662)" fill="#cccccc"/>
<use data-text="m" xlink:href="#font_60_80" transform="matrix(8.113642,0,0,-8.1184639,567.01919,-36.1662)" fill="#cccccc"/>
</svg>
